<svg width="800" height="600" xmlns="http://www.w3.org/2000/svg">
 <!-- Created with Method Draw - http://github.com/duopixel/Method-Draw/ -->

 <g>
  <title>background</title>
  <rect fill="#4c4c4c" id="canvas_background" height="602" width="802" y="-1" x="-1"/>
 </g>
 <g>
  <title>Layer 1</title>
  <g stroke="null" id="svg_99">
   <path stroke="null" id="svg_71" fill="#3f3d56" d="m579.281935,342.578974c0,13.840844 -84.483763,25.062276 -188.702116,25.062276s-188.702116,-11.221432 -188.702116,-25.062276c0,-9.798542 42.348407,-18.287377 104.066173,-22.405136c25.450437,-1.703157 54.206204,-2.65714 84.635942,-2.65714c12.509124,0 24.732151,0.161692 36.553426,0.468907c86.723852,2.263695 152.14869,12.412542 152.14869,24.593369z"/>
   <ellipse stroke="null" transform="matrix(0.6087165017435692,0,0,0.5389736817522917,-2627.3599176128128,-1755.9543500249038) " id="svg_72" opacity="0.1" ry="14.5" rx="119" cy="3888.572904" cx="4917.874036"/>
   <ellipse stroke="null" transform="matrix(0.6087165017435692,0,0,0.5389736817522917,-2627.3599176128128,-1755.9543500249038) " id="svg_73" fill="#3f3d56" ry="120" rx="112.5" cy="3779.072904" cx="4917.374036"/>
   <rect stroke="null" transform="matrix(0.6087165017435692,0,0,0.5389736817522917,-2627.3599176128128,-1755.9543500249038) " id="svg_74" fill="#e1691d" height="64" width="70" y="3850.072904" x="4882.874036"/>
   <polygon stroke="null" id="svg_75" fill="#575a89" points="443.23394775390625,327.48797607421875 440.7988586425781,339.3453369140625 456.6256103515625,341.50115966796875 466.97381591796875,336.111572265625 466.36505126953125,327.48797607421875 443.23394775390625,327.48797607421875 "/>
   <path stroke="null" id="svg_76" fill="#a0616a" d="m363.491935,104.89158s-1.217433,12.396395 -4.261016,12.935368s6.695882,22.097921 6.695882,22.097921l14.609196,0l11.565614,-2.694868l-5.478449,-11.857421s-7.304598,-8.623579 -1.82615,-15.630237s-21.305078,-4.850763 -21.305078,-4.850763z"/>
   <path stroke="null" id="svg_77" opacity="0.1" d="m363.491935,104.89158s-1.217433,12.396395 -4.261016,12.935368s6.695882,22.097921 6.695882,22.097921l14.609196,0l11.565614,-2.694868l-5.478449,-11.857421s-7.304598,-8.623579 -1.82615,-15.630237s-21.305078,-4.850763 -21.305078,-4.850763z"/>
   <path stroke="null" id="svg_78" fill="#2f2e41" d="m333.05611,199.750948s-15.826629,26.948684 -3.043583,32.338421s15.826629,4.850763 15.826629,6.467684s-2.434866,1.077947 -1.217433,3.772816s-2.434866,13.474342 1.217433,19.942026s2.434866,11.318447 2.434866,11.318447s0,0.538974 1.217433,2.694868s1.82615,3.772816 1.217433,4.850763s-4.261016,8.084605 -0.608717,9.701526s22.522511,2.694868 24.34866,0s-1.82615,-4.311789 0,-5.92871s3.043583,-2.155895 1.82615,-3.233842s-2.434866,-14.552289 -2.434866,-14.552289s3.043583,-15.630237 1.82615,-17.786131s-3.043583,-4.311789 -1.82615,-5.92871s2.434866,-1.077947 3.043583,-3.233842s1.82615,-7.006658 1.82615,-7.006658l6.695882,-0.538974l15.826629,2.694868s17.652779,17.247158 37.131707,22.636895c0,0 5.478449,4.850763 7.304598,4.850763s1.82615,0 1.217433,1.077947s-2.434866,1.077947 -1.217433,2.155895s3.043583,-0.538974 1.82615,1.077947s-2.434866,1.616921 -1.217433,2.694868s-0.608717,7.006658 -0.608717,7.545632s-5.478449,51.2025 -3.652299,52.280447s27.392243,4.311789 29.218392,0s-1.217433,-9.701526 -1.217433,-9.701526s9.130748,-64.676842 6.695882,-68.988631s-10.956897,-23.714842 -56.610635,-36.111237c0,0 -12.783047,-2.155895 -12.783047,-3.772816s-1.217433,-11.857421 -3.652299,-12.396395s-16.435346,-1.077947 -16.435346,-1.077947l-17.652779,4.850763l-24.34866,-3.772816l-12.17433,1.077947z"/>
   <path stroke="null" id="svg_79" fill="#2f2e41" d="m354.361188,290.298527l-3.043583,9.701526s-2.434866,15.630237 0.608717,19.403053c2.390667,2.963461 6.659145,6.591988 14.575406,7.228823a9.782774,8.661927 0 0 0 10.21338,-5.992169a3.047557,2.698388 0 0 0 0.168614,-0.69768c0,-1.077947 -1.82615,-14.013316 -1.82615,-14.013316l-3.043583,-13.474342l-0.608717,-3.772816l-17.044086,1.616921z"/>
   <path stroke="null" id="svg_80" fill="#2f2e41" d="m443.233797,336.650263s-3.043583,-2.694868 -3.652299,0s-3.043583,14.013316 1.217433,14.552289s45.045021,5.92871 49.306037,3.772816s12.17433,-5.389737 7.304598,-7.006658s-18.870212,-6.467684 -18.870212,-6.467684s-7.913315,-9.162553 -9.130748,-9.701526s-7.913315,0.538974 -10.956897,2.694868s-15.217913,2.155895 -15.217913,2.155895z"/>
   <circle stroke="null" transform="matrix(0.6087165017435692,0,0,0.5389736817522917,-2627.3599176128128,-1755.9543500249038) " id="svg_81" fill="#a0616a" r="31" cy="3442.572904" cx="4937.374036"/>
   <path stroke="null" id="svg_82" fill="#575a89" d="m376.274982,137.230001l-7.304598,-7.006658l-8.096824,-14.013316s-5.903655,-1.616921 -7.121088,1.077947s-23.131227,11.318447 -23.131227,11.318447s5.478449,45.273789 3.043583,49.585579s-6.695882,21.558947 -3.043583,23.175868s20.696361,0 26.17481,2.155895s21.305078,2.155895 25.566093,-0.538974s5.478449,-4.850763 9.739464,-3.233842c3.6275,1.376539 12.107828,-45.683948 14.549323,-59.708043a7.209638,6.383604 0 0 0 -2.987623,-6.203431c-5.461867,-3.392214 -15.298732,-9.23782 -17.040148,-8.466872c-2.434866,1.077926 -10.348181,11.857399 -10.348181,11.857399z"/>
   <path stroke="null" id="svg_83" fill="#575a89" d="m402.449791,135.074106l0,0a7.219086,6.391969 0 0 1 5.424048,5.495252l4.924127,39.239564s-12.17433,23.175868 -18.261495,7.545632s7.913321,-52.280447 7.913321,-52.280447z"/>
   <path stroke="null" id="svg_84" fill="#575a89" d="m401.232358,183.581738l13.391763,-3.233842s2.434866,15.091263 4.869732,15.091263s-8.522031,8.623579 -14.00048,7.545632s-13.391763,-4.850763 -14.00048,-7.545632s5.478449,-14.013316 5.478449,-14.013316l4.261016,2.155895z"/>
   <path stroke="null" id="svg_85" fill="#2f2e41" d="m363.856124,106.709522c1.283126,-2.50515 1.060342,-5.427282 2.121152,-8.012668a10.790815,9.554473 0 0 1 16.406827,-4.516982c1.364608,0.861501 2.732699,2.071906 4.398336,1.907428c1.793711,-0.177101 3.393594,-1.948891 5.042729,-1.299552c1.827836,0.719708 1.334148,3.620157 3.185967,4.29008c0.974738,0.352629 2.126582,-0.190317 2.688792,-0.978615a6.832599,6.049764 0 0 0 0.782706,-2.682052c0.255515,-2.298766 0.486419,-4.73165 -0.63953,-6.815284a18.437372,16.324936 0 0 1 -1.234654,-2.204359a8.518287,7.542317 0 0 1 -0.234727,-2.17443c-0.010281,-2.701924 -0.233023,-5.520249 -1.768735,-7.855094c-1.704132,-2.590906 -4.854191,-4.247652 -8.140524,-4.970561s-6.729361,-0.612064 -10.103519,-0.359145c-5.577815,0.418103 -11.394729,1.31433 -15.78923,4.384551a6.176817,5.469117 0 0 0 -1.517749,1.411858a8.232891,7.289619 0 0 0 -0.808442,2.070457a48.36227,42.821233 0 0 1 -4.241317,9.850908a24.139426,21.373686 0 0 0 -2.188598,4.185368c-0.466027,1.48456 -0.434544,3.176404 0.540966,4.452381c0.794223,1.038845 2.063945,1.592468 3.061509,2.441788c0.988476,0.841586 1.450985,2.460081 2.545969,3.097336c0.955886,0.556302 2.100863,0.163611 3.075784,0.753226c1.251679,0.757005 1.342086,2.41685 2.816288,3.023362z"/>
   <path stroke="null" id="svg_86" fill="#f2f2f2" d="m379.318564,145.314606l1.82615,-3.233842s26.783526,7.006658 32.261975,13.474342c0,0 13.391763,-7.545632 20.696361,-6.467684l7.304598,1.077947l-22.522511,17.786131l-28.609676,-2.155895l-10.956897,-20.481z"/>
   <path stroke="null" id="svg_87" fill="#e1691d" d="m378.101131,142.080764l-24.957377,30.7215l35.914274,15.630237s3.35751,1.616921 5.93977,0l23.887338,-9.701526l22.522511,-28.565605l-22.522511,10.2405s-2.434866,-4.311789 -7.304598,-2.155895l-33.479408,-16.16921z"/>
   <path stroke="null" id="svg_88" fill="#a0616a" d="m416.450271,196.517106l4.869732,-11.318447s10.956897,-12.396395 4.869732,-18.325105s-12.783047,17.247158 -12.783047,17.247158l3.043583,12.396395z"/>
   <path stroke="null" id="svg_89" fill="#a0616a" d="m360.264325,194.710892l10.625901,-7.627556s16.502304,-5.855949 14.596115,-13.688563s-20.830601,9.240774 -20.830601,9.240774l-4.391415,12.075344z"/>
   <path stroke="null" id="svg_90" opacity="0.1" d="m333.969185,140.194356l-0.608717,0s-9.435106,-9.971013 -11.261255,3.503329s-7.913315,58.209158 7.913315,59.826079s27.087884,-6.737171 27.087884,-6.737171s11.565614,-15.630237 7.304598,-15.630237c-2.061668,0 -7.668824,-0.819865 -12.783047,-0.538974c-5.455756,0.299669 -10.358011,1.660459 -10.043822,0.269487c0.608717,-2.694868 9.435106,-36.919697 -7.608956,-40.692513z"/>
   <path stroke="null" id="svg_91" fill="#575a89" d="m333.05611,129.684369l-2.434866,-1.077947s-9.739464,1.616921 -11.565614,15.091263s-7.913315,58.209158 7.913315,59.826079s37.131707,-2.155895 37.131707,-2.155895s4.261016,-20.481 0,-20.481s-26.17481,2.694868 -25.566093,0s11.565614,-47.429684 -5.478449,-51.2025z"/>
   <polygon stroke="null" id="svg_92" fill="#575a89" points="407.62384033203125,190.319091796875 414.33624267578125,181.2099609375 418.5806579589844,196.24783325195312 407.62384033203125,200.5596923828125 407.62384033203125,190.319091796875 "/>
   <circle stroke="null" transform="matrix(0.6087165017435692,0,0,0.5389736817522917,-2627.3599176128128,-1755.9543500249038) " id="svg_93" fill="#f2f2f2" r="27" cy="3343.072904" cx="4759.347176"/>
   <rect stroke="null" transform="matrix(0.6087165017435692,0,0,0.5389736817522917,-2627.3599176128128,-1755.9543500249038) " id="svg_94" fill="#f2f2f2" height="64" width="64" y="3544.072904" x="4727.347176"/>
   <polygon stroke="null" id="svg_95" fill="#f2f2f2" points="428.3201904296875,0 438.18084716796875,15.121917724609375 448.0408630371094,30.244049072265625 428.3201904296875,30.244049072265625 408.59967041015625,30.244049072265625 418.459716796875,15.121917724609375 428.3201904296875,0 "/>
   <path stroke="null" id="svg_96" fill="#e1691d" d="m600.122306,90.671023q-0.35353,9.677483 -5.323305,15.51356q-4.970602,5.836713 -11.809983,5.837241q-5.570827,0 -9.765286,-5.712372q-4.195779,-5.712259 -4.195274,-17.573733q0,-2.621999 0.141034,-4.994357q0.140547,-2.371829 0.352575,-4.494868l2.467791,-20.539209l-16.287367,0q-4.230202,38.955783 -6.944914,46.353655q-2.714955,7.397716 -9.201164,7.397953a7.779513,6.888186 0 0 1 -5.217644,-1.935309a7.343763,6.502362 0 0 1 -2.467798,-5.119334q0,-2.870574 5.111758,-8.022084q5.11152,-5.150492 5.67588,-9.395567l4.230434,-29.27933l-6.839021,0a12.120033,10.731397 0 0 0 -5.534846,1.217294a10.443055,9.246557 0 0 0 -3.983751,2.840521l-3.03192,3.995482l-2.467791,0q3.45393,-9.488739 8.496246,-14.265049q5.040173,-4.775878 11.598442,-4.775846l53.867898,0l0,10.987577l-18.191006,0q-0.846183,7.491535 -1.304413,14.982929q-0.459307,7.491535 -0.45823,15.045504q0,5.119711 2.679339,8.303148q2.678742,3.183922 6.698231,3.183815q2.467201,0 5.182271,-1.779325a7.286337,6.451515 0 0 0 3.067055,-4.650847q0.211553,-1.372588 0.317196,-2.153836q0.105777,-0.779868 0.105917,-0.967652l3.031646,0.000038z"/>
   <path stroke="null" id="svg_97" opacity="0.1" d="m600.122306,90.671023q-0.35353,9.677483 -5.323305,15.51356q-4.970602,5.836713 -11.809983,5.837241q-5.570827,0 -9.765286,-5.712372q-4.195779,-5.712259 -4.195274,-17.573733q0,-2.621999 0.141034,-4.994357q0.140547,-2.371829 0.352575,-4.494868l2.467791,-20.539209l-16.287367,0q-4.230202,38.955783 -6.944914,46.353655q-2.714955,7.397716 -9.201164,7.397953a7.779513,6.888186 0 0 1 -5.217644,-1.935309a7.343763,6.502362 0 0 1 -2.467798,-5.119334q0,-2.870574 5.111758,-8.022084q5.11152,-5.150492 5.67588,-9.395567l4.230434,-29.27933l-6.839021,0a12.120033,10.731397 0 0 0 -5.534846,1.217294a10.443055,9.246557 0 0 0 -3.983751,2.840521l-3.03192,3.995482l-2.467791,0q3.45393,-9.488739 8.496246,-14.265049q5.040173,-4.775878 11.598442,-4.775846l53.867898,0l0,10.987577l-18.191006,0q-0.846183,7.491535 -1.304413,14.982929q-0.459307,7.491535 -0.45823,15.045504q0,5.119711 2.679339,8.303148q2.678742,3.183922 6.698231,3.183815q2.467201,0 5.182271,-1.779325a7.286337,6.451515 0 0 0 3.067055,-4.650847q0.211553,-1.372588 0.317196,-2.153836q0.105777,-0.779868 0.105917,-0.967652l3.031646,0.000038z"/>
   <path stroke="null" id="svg_98" fill="#e1691d" d="m600.122306,88.720478q-0.35353,9.677483 -5.323305,15.51356q-4.970602,5.836713 -11.809983,5.837241q-5.570827,0 -9.765286,-5.712366q-4.195779,-5.712264 -4.195274,-17.573738q0,-2.621999 0.141034,-4.994357q0.140547,-2.371829 0.352575,-4.494863l2.467791,-20.539241l-16.287367,0q-4.230202,38.95581 -6.944914,46.353682q-2.714955,7.397721 -9.201164,7.397953a7.779513,6.888186 0 0 1 -5.217644,-1.935309a7.343751,6.502351 0 0 1 -2.467798,-5.119328q0,-2.870574 5.111758,-8.022084q5.11152,-5.150497 5.67588,-9.395567l4.230434,-29.279336l-6.839021,0a12.120033,10.731397 0 0 0 -5.534846,1.217294a10.443055,9.246557 0 0 0 -3.983751,2.840521l-3.03192,3.995487l-2.467791,0q3.45393,-9.48875 8.496246,-14.265049q5.040173,-4.775884 11.598442,-4.775846l53.867898,0l0,10.987577l-18.191006,0q-0.846183,7.491535 -1.304413,14.982962q-0.459307,7.491529 -0.45823,15.045499q0,5.119711 2.679339,8.303148q2.678742,3.183922 6.698231,3.183815q2.467201,0 5.182271,-1.779325a7.286337,6.451515 0 0 0 3.067055,-4.650847q0.211553,-1.372588 0.317196,-2.15383q0.105777,-0.779895 0.105917,-0.967657l3.031646,0.000005z"/>
  </g>
 </g>
</svg>