<svg width="300" height="300" xmlns="http://www.w3.org/2000/svg">
 <!-- Created with Method Draw - http://github.com/duopixel/Method-Draw/ -->

 <g>
  <title>background</title>
  <rect fill="#4c4c4c" id="canvas_background" height="302" width="302" y="-1" x="-1"/>
  <g display="none" overflow="visible" y="0" x="0" height="100%" width="100%" id="canvasGrid">
   <rect fill="url(#gridpattern)" stroke-width="0" y="0" x="0" height="100%" width="100%"/>
  </g>
 </g>
 <g>
  <title>Layer 1</title>
  <defs>
   <linearGradient y2="-0.000072" x2="0.499883" y1="1.000005" x1="0.499883" id="svg_5">
    <stop stop-opacity="0.25" stop-color="gray" offset="0"/>
    <stop stop-opacity="0.12" stop-color="gray" offset="0.54"/>
    <stop stop-opacity="0.1" stop-color="gray" offset="1"/>
   </linearGradient>
  </defs>
  <g stroke="null" id="svg_76">
   <path stroke="null" id="svg_7" opacity="0.1" fill="#e1691d" d="m163.377104,85.512621c-16.913325,-0.685695 -33.021752,-7.051989 -48.406293,-14.018648s-30.617509,-14.686057 -47.125772,-18.361381c-10.617868,-2.374028 -22.759294,-2.709256 -31.315262,3.928269c-8.231918,6.399817 -10.892265,17.416646 -12.324358,27.647211c-1.074069,7.701114 -1.709103,15.801454 1.241321,23.008867c2.04622,5.004048 5.68133,9.209642 8.195332,14.00341c8.744127,16.676096 2.563655,37.240842 -6.914811,53.523806c-4.442623,7.637115 -9.601291,14.932907 -13.032564,23.057628s-5.01755,17.447121 -2.017473,25.742504c2.976557,8.228337 10.06646,14.396542 17.744357,18.739275c15.598832,8.819558 33.972996,11.345962 51.905511,12.775255c39.675233,3.166386 79.564757,1.794996 119.344522,0.423607c14.723374,-0.508938 29.509467,-1.023971 43.992417,-3.678371c8.04376,-1.475006 16.348851,-3.81551 22.18698,-9.44735c7.41134,-7.170843 9.248495,-19.315259 4.283211,-28.305478c-8.331224,-15.082236 -31.359689,-18.830701 -37.189978,-35.016144c-3.206528,-8.907936 0.086239,-18.833748 4.743153,-27.095608c9.993287,-17.727494 26.741975,-33.276003 27.625272,-53.539044c0.606287,-13.915032 -7.445313,-27.851396 -19.895109,-34.437113c-13.050857,-6.90266 -31.145398,-6.034114 -40.767595,5.391084c-9.920115,11.736046 -27.340422,16.261631 -42.27286,15.65822z"/>
   <g stroke="null" transform="matrix(0.2613307392320084,0,0,0.30475321090517987,-3915.2065577770663,-4570.681772611309) " id="svg_8" opacity="0.1">
    <path stroke="null" id="svg_9" fill="#e1691d" d="m15099.090235,15495.53383s-74.74,-31.44 -84.57,25.25c0,0 -5.11,8.84 2,16.14c0,0 1.53,-3.92 8.75,0.13a37.17,37.17 0 0 0 8.16,3.32a18.36,18.36 0 0 0 11.62,-0.62l0,0s24.59,-1.33 45.27,-33.5c0,0 8.87,-5.48 9.31,-7.54l-14.82,1s1.14,10.85 -5,17.36c0,0 5.44,-16.84 2.83,-17.31c-0.53,-0.1 -7.83,0.86 -7.83,0.86s1.89,18.87 -8,28.63c0,0 9.18,-19.19 5.19,-28.29l-10.94,2.11s3,19.85 -7.82,31.39c0,0 8.9,-20.4 5.46,-30.76l-10.47,3.52s2.52,19.41 -6.53,29c0,0 7.9,-24.61 4.18,-28c0,0 -9.42,3.82 -11.43,6c0,0 1.49,14 -4.26,19.05c0,0 3.53,-17 1.78,-17.7c0,0 -10.94,8.24 -14.28,15.35c0,0 4.16,-10.86 12.91,-17c0,0 -7.35,-1.24 -13,1.83c0,0 3.78,-7.21 15.65,-3.79c0,0 8.79,-6.09 10.55,-6c0,0 -11.23,-5 -19.34,-4.38c0,0 8.7,-5 22.08,3.35l10.45,-3.77s-14.5,-7.43 -21.76,-7.4c0,0 9.66,-3.74 24.47,6.66l10.7,-2.18s-12,-7.35 -20.09,-9.06c0,0 9.7,-1.54 23.18,8.55l7.31,-0.61s-8.85,-5.22 -11.53,-6.49s-2.56,-2.09 -2.56,-2.09a34.89,34.89 0 0 1 17.16,8.26s15.16,-0.34 15.22,-1.27z"/>
   </g>
   <g stroke="null" transform="matrix(0.2613307392320084,0,0,0.30475321090517987,-3915.2065577770663,-4570.681772611309) " id="svg_10" opacity="0.1">
    <path stroke="null" id="svg_11" fill="#e1691d" d="m15096.350235,15439.17383s-26.51,-61.27 -64.63,-33.17c0,0 -8.06,2.34 -8,10.7c0,0 3.14,-1.46 5.13,5.07a30.1,30.1 0 0 0 3,6.61a15,15 0 0 0 7.25,6.25l0,0s15.37,13.22 46,5.89c0,0 8.4,1.79 9.83,0.83l-9.36,-7.87s-5.51,7.1 -12.89,7.44c0,0 12.83,-6.9 11.55,-8.67c-0.26,-0.36 -5.15,-3.94 -5.15,-3.94s-9.62,12.28 -21,12.47c0,0 16.39,-6.18 19.2,-13.85l-7.7,-5s-9.54,13.49 -22.53,14.19c0,0 16.91,-7.05 20.77,-15.17l-8.23,-3.87s-9.56,13 -20.37,13.49c0,0 18.72,-10.12 18.43,-14.25c0,0 -7.77,-3.1 -10.24,-2.92c0,0 -7.07,9.15 -13.38,8.89c0,0 11.79,-8.09 11.15,-9.5c0,0 -11.2,-1.34 -17.23,1c0,0 8.66,-4.08 17.35,-2.74c0,0 -3.66,-4.93 -8.75,-6.3c0,0 6.36,-2.13 11.46,6.65c0,0 8.68,1.4 9.7,2.44c0,0 -3.81,-9.39 -9,-13.62c0,0 8,2 11.2,14.57l8.36,3.71s-4.38,-12.68 -8.72,-16.79c0,0 7.87,3.28 10.75,17.9l7.6,4.79s-2.94,-11.2 -6.77,-16.83c0,0 6.64,4.62 8.89,18.29l4.7,3.8s-2.29,-8.14 -3.16,-10.42s-0.33,-2.7 -0.33,-2.7a28.65,28.65 0 0 1 5.49,14.68s9.04,8.46 9.63,7.95z"/>
   </g>
   <path stroke="null" id="svg_12" fill="url(#svg_5)" d="m251.976065,254.879218c-0.261331,-1.103207 -0.522661,-2.221651 -1.045323,-3.181624a9.481079,11.056446 0 0 0 -1.71433,-2.185081c-1.894648,-2.008324 -4.223105,-4.047123 -6.734493,-3.538185a8.885245,10.361609 0 0 0 -2.236991,0.95083c-0.365863,0.19809 -0.734339,0.396179 -1.110656,0.563793a5.540212,6.460768 0 0 1 -3.352873,0.341324c-0.574928,-0.179804 -1.110656,-0.502843 -1.677743,-0.70398a5.414773,6.314487 0 0 0 -0.825805,-0.207232a15.204222,17.730542 0 0 0 1.594118,-0.978258c2.819759,-2.032704 5.069816,-5.689742 4.753606,-9.560108c-0.104532,-1.310439 -0.491302,-2.562975 -0.872845,-3.797225q-0.501755,-1.61824 -1.006123,-3.239527c-0.433809,-1.404912 -0.880685,-2.834205 -1.67513,-4.00141c-0.883298,-1.298249 -2.137685,-2.178985 -3.433886,-2.837252c-2.785786,-1.411007 -5.830289,-1.907755 -8.835592,-2.389265l-0.209065,-0.033523l0,-37.862539a2.090646,2.438026 0 0 0 -2.090646,-2.453263l-3.953934,0q-0.261331,-1.86509 -0.522661,-3.727132c-0.499142,-3.538185 -1.013963,-7.146463 -2.412083,-10.334181c-0.914658,-2.087559 -2.372883,-4.07455 -4.335477,-4.485967a4.32241,5.040618 0 0 1 -1.128949,-0.304753c-0.574928,-0.329133 -0.888525,-1.060541 -1.332787,-1.603002c-1.139402,-1.392722 -2.992237,-1.414055 -4.521022,-2.133272c-1.348467,-0.624744 -2.451282,-1.804139 -3.679537,-2.709256s-2.757039,-1.551194 -4.118572,-0.959973c0,0.115806 -0.018293,0.228565 -0.028746,0.344371l-0.872845,-0.45713c-0.940791,-0.50589 -1.902488,-1.030066 -2.657734,-1.86509c-0.97215,-1.069684 -1.489585,-2.480691 -1.892035,-3.986172c-0.041813,-0.158472 -0.081013,-0.304753 -0.120212,-0.472367a12.159719,14.180167 0 0 0 3.250954,-7.243984c0.070559,0.265135 0.143732,0.533318 0.214291,0.801501a3.627271,4.229975 0 0 0 0.261331,0.789311a1.792729,2.090607 0 0 0 0.122825,0.240755a1.332787,1.554241 0 0 0 0.318824,0.387037a0.891138,1.039208 0 0 0 0.420742,0.191995a0.783992,0.91426 0 0 0 0.219518,0a1.207348,1.40796 0 0 0 0.878071,-0.874642a1.567984,1.828519 0 0 0 0.091466,-0.371799a1.648997,1.922993 0 0 0 0.018293,-0.231612c0,-0.02438 0,-0.048761 0,-0.073141s0,-0.106664 0,-0.158472s0,-0.057903 0,-0.085331s0,-0.103616 0,-0.152377l0,-0.079236c0,-0.060951 -0.01568,-0.121901 -0.026133,-0.179804s0,-0.033523 0,-0.048761c-0.013067,-0.079236 -0.028746,-0.155424 -0.041813,-0.23466a0.261331,0.304753 0 0 1 0,-0.051808l-0.0392,-0.191995l-0.02352,-0.115806l0,-0.030475l0,0c-0.026133,-0.118854 -0.049653,-0.240755 -0.073173,-0.362656a9.000231,10.495701 0 0 1 -0.143732,-3.221241a29.919756,34.891195 0 0 1 0.747406,-4.681009l0.054879,-0.277325l0.062719,-0.323038c0.041813,-0.219422 0.081013,-0.438845 0.120212,-0.658267l0,0c0.033973,-0.185899 0.065333,-0.374846 0.094079,-0.563793s0.049653,-0.332181 0.070559,-0.499795c0,-0.021333 0,-0.039618 0,-0.060951a12.418437,14.481873 0 0 0 0.128052,-3.437616l0,0c-0.122825,-1.593859 -0.546181,-3.102388 -1.476519,-4.306163c-0.65594,-0.850261 -1.518332,-1.478053 -2.127232,-2.37098c-0.572314,-0.838071 -0.893751,-1.868137 -1.484359,-2.687923c-1.633317,-2.273459 -5.822449,-4.02579 -8.393943,-4.330543c-2.945197,-0.347419 -7.70403,0.530271 -10.076913,2.559927c-0.878071,0.749693 -1.479132,1.828519 -2.090646,2.855538c-1.123722,1.907755 -2.401629,3.809415 -4.202198,4.876051c-0.682073,0.402274 -1.460839,0.707027 -1.912941,1.40796a3.290154,3.836843 0 0 0 -0.522661,1.581669a26.710615,31.148826 0 0 0 -0.538341,6.034114a6.379083,7.439026 0 0 0 0.287464,2.620878c0.036586,0.115806 0.081013,0.23466 0.128052,0.347419l0,0c0.041813,0.100569 0.088852,0.201137 0.138505,0.304753l0.03136,0.063998a10.858292,12.662496 0 0 1 0.838872,1.660905a2.064513,2.40755 0 0 1 0.125439,0.50589a3.211755,3.745417 0 0 1 -0.073173,1.337867l0,0c0,0.067046 -0.020906,0.131044 -0.033973,0.195042l-0.02352,0.140186c0,0.042665 0,0.088378 -0.020906,0.131044q-0.03136,0.19809 -0.054879,0.393132c0,0.091426 -0.01568,0.185899 -0.018293,0.280373a1.962594,2.288697 0 0 0 0.180318,1.097112a1.196895,1.39577 0 0 0 0.122825,0.231612a1.045323,1.219013 0 0 0 0.352796,0.350466a3.956547,4.613964 0 0 0 0.966924,0.268183c0.977377,0.255993 1.588891,1.127587 1.986114,2.197271a6.653481,7.759017 0 0 1 0.232584,0.734455a11.140529,12.991629 0 0 1 0.365863,1.910803c0.444262,-0.027428 0.70298,-0.484558 0.859778,-0.984353a3.972227,4.632249 0 0 0 0.122825,-0.502843c0.060106,-0.319991 0.120212,-0.639982 0.182932,-0.959973a12.149266,14.167977 0 0 0 4.771899,6.131635c0.073173,0.249898 0.143732,0.502843 0.209065,0.758835c0.342343,1.380532 0.506982,2.82811 -0.086239,4.034933c-0.423356,0.856357 -1.136789,1.386627 -1.931234,1.752331a1.277907,1.490243 0 0 0 -0.431196,-0.429702c-0.689913,-0.402274 -1.515718,0.088378 -2.090646,0.688742c-1.045323,1.103207 -1.897261,2.684876 -3.274474,3.047532c-0.496528,0.134091 -1.045323,0.106664 -1.460839,0.460177a3.376393,3.937411 0 0 0 -0.676847,1.039208a3.117676,3.635706 0 0 1 -2.676027,1.554241c-0.478235,-0.027428 -1.045323,-0.155424 -1.371986,0.252945c-0.243038,0.304753 -0.261331,0.789311 -0.522661,1.078826c-0.352796,0.402274 -0.925111,0.204185 -1.416413,0.179804a2.613307,3.047532 0 0 0 -1.894648,0.956925a4.458302,5.19909 0 0 0 -1.139402,-3.32181c-0.705593,-0.847214 -1.685583,-1.283011 -2.521842,-1.947373c-2.090646,-1.657857 -3.135969,-4.571298 -4.225718,-7.240936s-2.527068,-5.485558 -4.905178,-6.457721c-0.546181,-0.225517 -1.306654,-0.243803 -1.552305,0.374846a1.157695,1.350057 0 0 0 -0.0392,0.807596c0.229971,1.42015 1.097589,2.559927 1.847608,3.702752c1.262227,1.92604 2.320617,4.281783 2.01486,6.689333c-0.358023,2.849443 -2.534908,5.061951 -2.796239,7.923583c-0.114986,1.261678 0.159412,2.529452 0.156798,3.797225c0,0.792358 -0.107146,1.593859 0.0392,2.364885a13.753837,16.039161 0 0 0 0.551408,1.721856a8.647434,10.084284 0 0 1 0.360636,2.837252q0.277011,6.058494 0.551408,12.120035c0.138505,3.014009 -0.425969,5.988401 -0.99567,8.953649a24.092081,28.095199 0 0 0 -1.63593,5.485558c-0.642874,3.300477 -0.661167,6.817329 0.261331,10.029428c0.493915,1.746236 1.251774,3.382761 1.656837,5.159472c0,0.039618 0.01568,0.076188 0.02352,0.112759c0.0392,0.377894 0.083626,0.755788 0.143732,1.130634a9.319054,10.8675 0 0 0 0.290077,1.279963a7.821629,9.121264 0 0 0 0.574928,2.093655a5.022777,5.857357 0 0 0 1.567984,2.133272c-0.376316,0.859404 -0.985217,1.551194 -1.39028,2.392313c-0.705593,1.45672 -0.734339,3.245622 -0.478235,4.897384c0.493915,3.187719 1.970434,6.037161 3.919961,8.353286a2.268351,2.645258 0 0 0 -0.261331,0a4.097666,4.77853 0 0 0 -1.787502,0.746645c-4.126412,2.812872 -6.486229,8.837843 -5.623838,14.353876c0.169865,1.078826 0.465169,2.169843 1.081909,2.989629a4.066306,4.74196 0 0 0 1.905101,1.362247a6.609054,7.707209 0 0 0 1.403346,0.304753c3.216981,0.304753 6.332044,-1.435388 9.556865,-1.581669a25.738465,30.015144 0 0 1 3.201302,0.173709q2.328457,0.225517 4.667367,0.286468c2.532295,0.070093 3.959161,-0.71617 5.576798,-2.925631a6.76324,7.887013 0 0 0 0.985217,-1.810234c1.3746,-0.091426 2.892931,-0.231612 3.993134,-0.338276l0.01568,0.179804c0.060106,0.609506 0.151572,1.310439 0.569701,1.697475a2.035766,2.374028 0 0 0 0.783992,0.371799c2.642054,0.758835 5.315467,1.523766 8.033307,1.523766a33.899823,39.532587 0 0 0 3.815429,-0.344371l4.782353,-0.643029a24.358638,28.406047 0 0 1 4.105506,1.042256c1.379826,0.548556 2.6708,1.362247 4.019267,2.002229c3.135969,1.484148 6.512362,2.014419 9.854782,2.532499c0.569701,0.088378 1.223028,0.149329 1.646384,-0.304753c0.543568,-0.609506 0.360636,-1.63043 0.209065,-2.483739c-0.062719,-0.347419 -0.109759,-0.700932 -0.148959,-1.054446a45.340883,52.874682 0 0 1 6.601214,2.672686l0.376316,0.191995c0.107146,0.664362 0.635034,1.19768 1.139402,1.91385a4.155159,4.845576 0 0 0 0.577541,0.831976a1.894648,2.209461 0 0 0 0.828418,0.350466a38.708309,45.140046 0 0 0 10.71456,0.563793a10.975891,12.799635 0 0 1 2.208245,-0.088378a9.313828,10.861404 0 0 1 1.594118,0.420559l3.02621,1.008733c2.229151,0.746645 4.515795,1.499386 6.828572,1.331772a9.07079,10.577984 0 0 0 1.395506,-0.23466c1.829315,-0.4937 3.535805,-1.688333 4.413876,-3.608278c1.178602,-2.611735 0.606287,-5.820786 -0.065333,-8.673276zm-88.763599,-47.66645a9.509826,11.089969 0 0 1 -0.872845,3.812463c-0.32405,0.764931 -0.742179,1.46891 -1.045323,2.236889c-0.287464,0.694837 -0.501755,2.008324 -0.629807,3.449806c-0.156798,-0.030475 -0.31621,-0.057903 -0.473009,-0.079236c0.232584,-0.95083 0.407676,-1.92604 0.64026,-2.879918c0.551408,-2.267364 1.458226,-4.409779 2.380723,-6.540004z"/>
   <path stroke="null" id="svg_13" fill="#fbbebe" d="m167.239573,254.083812c-0.551408,-1.462815 -1.074069,-3.145053 -0.522661,-4.607869a3.3581,3.916079 0 0 1 1.737849,-1.904708a8.362584,9.752103 0 0 1 2.351977,-0.676552a32.825754,38.280051 0 0 1 7.646537,-0.121901c0.185545,1.712713 -0.206451,3.449806 -0.543568,5.104616c-0.305757,1.523766 -0.480849,1.749283 -1.829315,1.828519c-0.872845,0.054856 -8.634368,0.917307 -8.840819,0.377894z"/>
   <ellipse stroke="null" transform="matrix(0.2613307392320084,0,0,0.30475321090517987,-3915.2065577770663,-4570.681772611309) " id="svg_14" fill="#464353" ry="40" rx="143" cy="15759.333699" cx="15710.810158"/>
   <ellipse stroke="null" transform="matrix(0.2613307392320084,0,0,0.30475321090517987,-3915.2065577770663,-4570.681772611309) " id="svg_15" opacity="0.1" ry="40" rx="143" cy="15759.333699" cx="15710.810158"/>
   <path stroke="null" id="svg_16" fill="#fbbebe" d="m197.211595,167.674086a11.626605,13.55847 0 0 1 -5.994927,6.351057a15.047424,17.54769 0 0 1 -4.745766,1.054446c-1.774436,0.094473 -3.585458,-0.039618 -5.252748,-0.746645c-2.236991,-0.944735 -4.095053,-2.87687 -5.487946,-5.128997s-2.351977,-4.824243 -3.185622,-7.417693c-0.439036,-1.350057 -0.857165,-2.788492 -0.650714,-4.214737c1.345853,-0.356561 2.819759,-0.880737 3.514898,-2.273459c0.593221,-1.194633 0.428582,-2.626973 0.086239,-3.992267c-0.096692,-0.387037 -0.209065,-0.771026 -0.321437,-1.139777c-0.261331,-0.883784 -1.162922,-2.562975 -0.535728,-3.318762c0.399836,-0.478463 2.074966,-0.722265 2.652507,-1.033113c1.779662,-0.956925 3.420819,-2.340505 5.375573,-2.794587c1.69081,-0.393132 3.436499,-0.02438 5.124696,0.383989a1.685583,1.965658 0 0 1 0.63242,0.265135a1.520945,1.773664 0 0 1 0.470395,0.822834c0.480849,1.365294 0.763086,2.873823 1.149855,4.29702c0.402449,1.490243 0.919884,2.88906 1.889421,3.946554c0.755246,0.825881 1.716943,1.343962 2.657734,1.846804l2.31539,1.237298a3.044503,3.550375 0 0 1 1.094976,0.825881a2.772719,3.233432 0 0 1 0.522661,1.657857a13.280828,15.487558 0 0 1 -1.31188,9.371161z"/>
   <path stroke="null" id="svg_17" opacity="0.1" d="m190.03284,148.78853a12.021214,14.018648 0 0 1 -14.537829,2.517262c-0.096692,-0.387037 -0.209065,-0.771026 -0.321437,-1.139777c-0.261331,-0.883784 -1.162922,-2.562975 -0.535728,-3.318762c0.399836,-0.478463 2.074966,-0.722265 2.652507,-1.033113c1.779662,-0.956925 3.420819,-2.340505 5.375573,-2.794587c1.69081,-0.393132 3.436499,-0.02438 5.124696,0.383989a1.685583,1.965658 0 0 1 0.63242,0.265135a1.520945,1.773664 0 0 1 0.470395,0.822834c0.470395,1.365294 0.752633,2.873823 1.139402,4.29702z"/>
   <circle stroke="null" transform="matrix(0.2613307392320084,0,0,0.30475321090517987,-3915.2065577770663,-4570.681772611309) " id="svg_18" fill="#fbbebe" r="46" cy="15452.333699" cx="15675.810158"/>
   <path stroke="null" id="svg_19" fill="#f86d70" d="m217.990002,183.963146l-0.98783,-6.978849c-0.499142,-3.501614 -1.013963,-7.070274 -2.409469,-10.22447c-0.917271,-2.066227 -2.372883,-4.034933 -4.335477,-4.443302a4.194358,4.891289 0 0 1 -1.128949,-0.304753c-0.574928,-0.323038 -0.888525,-1.048351 -1.330173,-1.584717c-1.139402,-1.377485 -2.99485,-1.398817 -4.521022,-2.09975c-1.348467,-0.609506 -2.451282,-1.782806 -3.679537,-2.678781s-2.757039,-1.523766 -4.115959,-0.95083c-0.219518,2.727541 -0.452102,5.516033 -1.445159,7.999772a10.265071,11.970706 0 0 1 -15.48646,4.498157c-2.328457,-2.044894 -3.820655,-5.19909 -4.515795,-8.499567c-0.169865,-0.804548 -0.36325,-1.727951 -0.998283,-2.096702c-0.6873,-0.402274 -1.513105,0.085331 -2.090646,0.676552c-1.058389,1.094064 -1.899874,2.660496 -3.274474,3.029247c-0.496528,0.134091 -1.045323,0.106664 -1.458226,0.45713a3.3189,3.870366 0 0 0 -0.67946,1.027018a3.135969,3.657039 0 0 1 -2.673413,1.542051c-0.478235,-0.027428 -1.045323,-0.155424 -1.371986,0.249898c-0.243038,0.304753 -0.261331,0.780168 -0.522661,1.063589c-0.352796,0.399227 -0.925111,0.204185 -1.416413,0.182852c-0.930337,-0.045713 -1.795342,0.649124 -2.328457,1.523766s-0.783992,1.956516 -1.045323,3.004867c2.856345,7.417693 5.469652,14.844529 8.325997,22.262222a1.628091,1.898613 0 0 1 0.206451,0.91426a1.910328,2.227746 0 0 1 -0.35541,0.91426c-1.400733,2.623925 -1.356307,5.924402 -1.202121,9.008505s0.342343,6.341914 -0.838872,9.106026c-0.321437,0.758835 -0.739566,1.453673 -1.045323,2.212508c-0.716046,1.718808 -0.974764,7.216556 -0.556634,9.06336l59.060747,0c-1.126335,-3.611326 -0.697753,-10.858357 -0.462555,-14.692152c0.164638,-2.681828 -0.261331,-5.360609 -0.444262,-8.042437c-0.384156,-5.476415 -0.096692,-10.672457 -0.872845,-16.13973z"/>
   <path stroke="null" id="svg_20" fill="#464353" d="m221.013599,220.704193c0.870231,-0.387037 1.829315,-0.24685 2.762266,-0.100569c3.00269,0.478463 6.049807,0.969115 8.832979,2.367932c1.306654,0.652172 2.550588,1.523766 3.433886,2.806777c0.783992,1.155015 1.241321,2.56907 1.67513,3.961792l1.00351,3.196861c0.381543,1.219013 0.768312,2.462406 0.875458,3.757607c0.313597,3.836843 -1.936461,7.454264 -4.766673,9.44735s-6.162179,2.703161 -9.407907,3.446759s-6.504522,1.566432 -9.737183,2.438026a39.199611,45.712982 0 0 1 -4.581128,1.051399c-3.460019,0.45713 -7.076836,-0.216375 -10.364377,1.118444c-1.306654,0.533318 -2.589788,1.325676 -3.946094,1.694428a24.546796,28.625469 0 0 1 -2.72568,0.511985l-6.222285,0.828929a33.94425,39.584395 0 0 1 -3.815429,0.341324c-2.71784,0 -5.391253,-0.749693 -8.030694,-1.499386a2.03054,2.367932 0 0 1 -0.783992,-0.368751c-0.418129,-0.383989 -0.509595,-1.063589 -0.569701,-1.67919q-0.399836,-4.086741 -0.700366,-8.182624c-0.062719,-0.886832 -0.109759,-1.846804 0.305757,-2.59345c0.522661,-0.91426 1.541851,-1.200728 2.472189,-1.377485a64.517333,75.237473 0 0 1 11.937588,-0.966068c1.518332,-1.770616 4.02188,-1.779759 6.010607,-2.742779a17.872409,20.842072 0 0 0 2.119392,-1.343962a27.701058,32.30384 0 0 1 11.631831,-4.287878a10.832159,12.632021 0 0 0 2.380723,-0.396179c1.539238,-0.557698 2.942584,-2.075369 4.523635,-1.70357c0.195998,-0.630839 0.33189,-1.475006 0.783992,-1.907755c0.224744,-0.22247 0.501755,-0.371799 0.708206,-0.609506c0.436422,-0.515033 0.475622,-1.325676 0.410289,-2.044894s-0.211678,-1.45672 -0.052266,-2.157653a2.558428,2.983534 0 0 1 0.290077,-0.75274c0.786606,-1.603002 1.970434,-2.40755 3.546258,-2.255174z"/>
   <path stroke="null" id="svg_21" opacity="0.05" d="m221.013599,220.704193c0.870231,-0.387037 1.829315,-0.24685 2.762266,-0.100569c3.00269,0.478463 6.049807,0.969115 8.832979,2.367932c1.306654,0.652172 2.550588,1.523766 3.433886,2.806777c0.783992,1.155015 1.241321,2.56907 1.67513,3.961792l1.00351,3.196861c0.381543,1.219013 0.768312,2.462406 0.875458,3.757607c0.313597,3.836843 -1.936461,7.454264 -4.766673,9.44735s-6.162179,2.703161 -9.407907,3.446759s-6.504522,1.566432 -9.737183,2.438026a39.199611,45.712982 0 0 1 -4.581128,1.051399c-3.460019,0.45713 -7.076836,-0.216375 -10.364377,1.118444c-1.306654,0.533318 -2.589788,1.325676 -3.946094,1.694428a24.546796,28.625469 0 0 1 -2.72568,0.511985l-6.222285,0.828929a33.94425,39.584395 0 0 1 -3.815429,0.341324c-2.71784,0 -5.391253,-0.749693 -8.030694,-1.499386a2.03054,2.367932 0 0 1 -0.783992,-0.368751c-0.418129,-0.383989 -0.509595,-1.063589 -0.569701,-1.67919q-0.399836,-4.086741 -0.700366,-8.182624c-0.062719,-0.886832 -0.109759,-1.846804 0.305757,-2.59345c0.522661,-0.91426 1.541851,-1.200728 2.472189,-1.377485a64.517333,75.237473 0 0 1 11.937588,-0.966068c1.518332,-1.770616 4.02188,-1.779759 6.010607,-2.742779a17.872409,20.842072 0 0 0 2.119392,-1.343962a27.701058,32.30384 0 0 1 11.631831,-4.287878a10.832159,12.632021 0 0 0 2.380723,-0.396179c1.539238,-0.557698 2.942584,-2.075369 4.523635,-1.70357c0.195998,-0.630839 0.33189,-1.475006 0.783992,-1.907755c0.224744,-0.22247 0.501755,-0.371799 0.708206,-0.609506c0.436422,-0.515033 0.475622,-1.325676 0.410289,-2.044894s-0.211678,-1.45672 -0.052266,-2.157653a2.558428,2.983534 0 0 1 0.290077,-0.75274c0.786606,-1.603002 1.970434,-2.40755 3.546258,-2.255174z"/>
   <path stroke="null" id="svg_22" fill="#3f3d56" d="m169.643815,255.967187c-1.617637,2.185081 -3.04189,2.965249 -5.574185,2.895156q-2.336297,-0.063998 -4.667367,-0.28342a26.18534,30.536272 0 0 0 -3.198688,-0.173709c-3.224821,0.146282 -6.33727,1.868137 -9.554252,1.566432a6.773693,7.899203 0 0 1 -1.403346,-0.304753a4.084599,4.763293 0 0 1 -1.894648,-1.343962c-0.616741,-0.813691 -0.912044,-1.892517 -1.081909,-2.959154c-0.859778,-5.467273 1.497425,-11.42215 5.623838,-14.204547a4.123799,4.809006 0 0 1 1.787502,-0.74055a4.236171,4.94005 0 0 1 1.808409,0.463225l0.0392,0.018285a13.675438,15.947736 0 0 1 4.479209,3.486377a2.524455,2.943916 0 0 0 0.684687,0.643029a2.351977,2.742779 0 0 0 0.807512,0.176757l3.433886,0.252945a8.137839,9.490015 0 0 1 1.724783,0.277325a13.709411,15.987353 0 0 1 1.813635,0.91426c1.847608,0.96302 3.896441,1.219013 5.893008,1.590812a0.880685,1.027018 0 0 1 0.522661,0.243803a0.817965,0.953878 0 0 1 0.162025,0.396179a6.666547,7.774254 0 0 1 -1.405959,7.085512z"/>
   <path stroke="null" id="svg_23" opacity="0.1" d="m151.517915,240.900188a20.618995,24.045028 0 0 0 -3.436499,5.010143a21.502293,25.075094 0 0 0 -2.806692,9.916669a15.784377,18.407094 0 0 0 -0.028746,3.842938a4.084599,4.763293 0 0 1 -1.894648,-1.347009c-0.616741,-0.813691 -0.912044,-1.892517 -1.081909,-2.959154c-0.859778,-5.467273 1.497425,-11.42215 5.623838,-14.204547a4.123799,4.809006 0 0 1 1.787502,-0.74055a4.236171,4.94005 0 0 1 1.808409,0.463225l0.028746,0.018285z"/>
   <path stroke="null" id="svg_24" fill="#fbbebe" d="m218.023975,248.4794c1.920781,-0.060951 4.07676,-0.173709 5.487946,1.334819c1.345853,1.426245 1.523558,3.77894 1.612411,5.896975l0.101919,2.459358c0.03136,0.749693 0.057493,1.523766 -0.201225,2.218603c-0.459942,1.219013 -1.72217,1.807187 -2.874638,1.737093s-2.210858,-0.658267 -3.264021,-1.188538a45.915811,53.545139 0 0 0 -8.885245,-3.263907q0.148959,-2.550784 0.496528,-5.077188c0.159412,-1.167205 0.185545,-3.120673 0.854552,-4.089788c0.708206,-1.023971 1.630704,-0.46932 2.592401,-0.280373a20.809767,24.267498 0 0 0 4.079373,0.252945z"/>
   <path stroke="null" id="svg_25" fill="#464353" d="m167.268319,223.77001c0,0.304753 -0.410289,0 -0.446876,-0.326086c-0.287464,-2.465453 -1.965207,-4.498157 -3.919961,-5.485558s-4.181292,-1.039208 -6.298071,-0.804548c-3.201302,0.353514 -6.781533,1.782806 -7.965361,5.272231c-0.277011,0.816739 -0.402449,1.700523 -0.742179,2.483739c-0.376316,0.859404 -0.990444,1.545099 -1.398119,2.380123c-0.70298,1.44453 -0.731726,3.215146 -0.478235,4.848624c0.682073,4.357971 3.237888,8.085103 6.334657,10.666362s6.7162,4.123311 10.325178,5.512986a179.061209,208.813853 0 0 0 29.269043,8.152148c1.609797,0.28342 3.235275,0.545508 4.777126,1.14892c1.379826,0.539413 2.6708,1.347009 4.019267,1.980896c3.135969,1.46891 6.509749,1.993086 9.852169,2.508119c0.569701,0.085331 1.223028,0.146282 1.64377,-0.304753c0.543568,-0.588174 0.36325,-1.612144 0.209065,-2.456311a11.328688,13.211052 0 0 1 1.330173,-9.368114c0.559248,-1.097112 1.285747,-2.221651 1.181215,-3.492472c-0.125439,-1.481101 -1.39028,-2.529452 -2.649894,-2.767159s-2.540135,0.112759 -3.804976,0.304753c-0.436422,0.067046 -0.912044,0.109711 -1.306654,-0.149329a2.584561,3.014009 0 0 1 -0.506982,-0.524176a5.730983,6.683238 0 0 0 -6.674387,-1.087969c-0.467782,0.304753 -1.175988,-0.374846 -1.662064,-0.630839l-5.490559,-2.904298c-6.313751,-3.330953 -12.658861,-6.677143 -19.338475,-8.786035a4.06108,4.735865 0 0 1 -1.489585,-0.722265c-0.33189,-0.304753 -0.569701,-0.719218 -0.875458,-1.057494c-0.666393,-0.734455 -1.594118,-1.027018 -2.39379,-1.548146s-1.688197,-1.798044 -1.500038,-2.843347z"/>
   <path stroke="null" id="svg_26" fill="#3f3d56" d="m251.989131,263.598207c-0.878071,1.898613 -2.581948,3.081055 -4.411263,3.56866a8.75458,10.209233 0 0 1 -1.395506,0.231612c-2.312777,0.167614 -4.596808,-0.579031 -6.825959,-1.316534l-3.02621,-0.999591a9.551639,11.13873 0 0 0 -1.594118,-0.414464a10.939305,12.756969 0 0 0 -2.205631,0.088378a39.092465,45.588033 0 0 1 -10.71456,-0.560746a1.889421,2.203366 0 0 1 -0.828418,-0.344371a4.115959,4.799863 0 0 1 -0.577541,-0.825881c-0.823192,-1.155015 -1.709103,-1.828519 -0.734339,-3.352285c0.561861,-0.883784 1.604571,-1.325676 2.040993,-2.340505s0.156798,-2.456311 -0.101919,-3.504662c-0.352796,-1.447578 -1.513105,-2.072322 -1.928621,-3.401046c-0.310984,-1.002638 0.211678,-2.166795 0.998283,-2.712304s1.758756,-0.588174 2.665574,-0.447987s1.795342,0.438845 2.707386,0.521128c2.681253,0.249898 5.422613,-1.362247 7.996721,-0.454082c0.567088,0.201137 1.102816,0.521128 1.677743,0.697885a5.579411,6.506481 0 0 0 3.352873,-0.338276c0.376316,-0.164567 0.744793,-0.362656 1.110656,-0.557698a8.945351,10.431702 0 0 1 2.234378,-0.941687c2.511388,-0.502843 4.839845,1.523766 6.734493,3.501614a9.522892,11.105207 0 0 1 1.711716,2.163748c0.522661,0.95083 0.799672,2.057084 1.045323,3.148101c0.692526,2.825062 1.264841,6.000591 0.067946,8.590993z"/>
   <path stroke="null" id="svg_27" opacity="0.1" d="m251.989131,263.598207c-0.878071,1.898613 -2.581948,3.081055 -4.411263,3.56866a8.542902,9.962382 0 0 0 0.927724,-5.229565c-0.156798,-2.898203 -1.249161,-5.628792 -2.642054,-8.036342a24.408291,28.46395 0 0 0 -2.911224,-4.135501c-0.831032,-0.97521 -1.852835,-1.749283 -2.746586,-2.64221a8.945351,10.431702 0 0 1 2.234378,-0.941687c2.511388,-0.502843 4.839845,1.523766 6.734493,3.501614a9.522892,11.105207 0 0 1 1.711716,2.163748c0.522661,0.95083 0.799672,2.057084 1.045323,3.148101c0.682073,2.837252 1.254388,6.012781 0.057493,8.603183z"/>
   <path stroke="null" id="svg_28" fill="#3f3d56" d="m173.059408,115.713664c-0.878071,0.74055 -1.479132,1.804139 -2.090646,2.825062c-1.126335,1.886422 -2.401629,3.769797 -4.202198,4.821196c-0.682073,0.399227 -1.460839,0.700932 -1.912941,1.39577a3.224821,3.760655 0 0 0 -0.509595,1.563384a26.56427,30.978164 0 0 0 -0.538341,5.973163c0,0.999591 0.036586,2.029656 0.415516,2.937821c0.358023,0.853309 1.00351,1.575574 1.136789,2.505071c0.101919,0.725313 -0.128052,1.447578 -0.209065,2.175938s0.060106,1.590812 0.637647,1.93823a3.865082,4.5073 0 0 0 0.966924,0.265135c1.737849,0.451035 2.320617,2.82811 2.584561,4.793768c0.590607,-0.039618 0.857165,-0.828929 0.97999,-1.471958l1.811022,-9.389446c0.195998,-1.017876 0.522661,-2.197271 1.392893,-2.553832c0.582768,-0.23466 1.220415,-0.015238 1.829315,0.045713c2.391176,0.228565 4.413876,-1.92604 6.752786,-2.520309a8.623914,10.056856 0 0 1 2.276191,-0.173709c1.844995,0.106664 3.99052,0.990448 4.382516,2.998772c0.065333,0.326086 0.104532,0.71617 0.365863,0.877689s0.522661,0.02438 0.810125,0c1.170762,-0.137139 1.860675,1.398817 2.197792,2.6544l1.228254,4.571298c0.182932,0.69179 0.491302,1.505481 1.134175,1.593859c0.593221,0.085331 1.097589,-0.569889 1.186442,-1.219013s-0.104532,-1.322629 -0.232584,-1.974801c-0.577541,-3.001819 0.305757,-6.073731 0.844098,-9.081646s0.635034,-6.463816 -1.170762,-8.77994c-0.65594,-0.838071 -1.518332,-1.462815 -2.129846,-2.3466c-0.569701,-0.828929 -0.891138,-1.846804 -1.481745,-2.660496c-1.633317,-2.246031 -5.822449,-3.980077 -8.39133,-4.266545c-2.924291,-0.374846 -7.690964,0.4937 -10.063847,2.502024z"/>
   <g stroke="null" transform="matrix(0.2613307392320084,0,0,0.30475321090517987,-3915.2065577770663,-4570.681772611309) " id="svg_29" opacity="0.1">
    <path stroke="null" id="svg_30" d="m15726.110235,15461.97383c-2.46,-0.3 -3.64,-3 -4.34,-5.23q-2.35,-7.51 -4.7,-15c-1.29,-4.13 -3.93,-9.17 -8.41,-8.71c-1,0.11 -2.18,0.52 -3.1,0s-1.15,-1.81 -1.4,-2.88c-1.5,-6.6 -9.71,-9.49 -16.77,-9.84a33.43,33.43 0 0 0 -8.71,0.57c-9,2 -16.69,9 -25.84,8.27c-2.36,-0.19 -4.8,-0.91 -7,-0.14c-3.37,1.16 -4.58,5 -5.33,8.38l-6.93,30.8c-0.47,2.12 -1.49,4.71 -3.75,4.83c-1,-6.44 -3.24,-14.24 -9.89,-15.72a15.72,15.72 0 0 1 -3.7,-0.87a4.34,4.34 0 0 1 -1.93,-2.15c-0.18,0.93 -0.39,1.86 -0.51,2.79c-0.3,2.38 0.23,5.22 2.44,6.36a14.79,14.79 0 0 0 3.7,0.87c6.65,1.48 8.88,9.28 9.89,15.73c2.26,-0.13 3.28,-2.72 3.75,-4.83l6.93,-30.81c0.75,-3.34 2,-7.21 5.33,-8.38c2.23,-0.77 4.67,-0.05 7,0.15c9.15,0.75 16.89,-6.32 25.84,-8.27a33,33 0 0 1 8.67,-0.57c7.06,0.35 15.27,3.25 16.77,9.84c0.25,1.07 0.4,2.35 1.4,2.88s2,0.08 3.1,0c4.48,-0.45 7.12,4.59 8.41,8.71q2.34,7.51 4.7,15c0.7,2.27 1.88,4.94 4.34,5.23c2.27,0.28 4.2,-1.87 4.54,-4a13.58,13.58 0 0 0 -0.6,-5.31a4.13,4.13 0 0 1 -3.9,2.3z"/>
    <path stroke="null" id="svg_31" d="m15614.570235,15442.93383c-0.51,-3.05 -3,-5.42 -4.35,-8.22a16.45,16.45 0 0 1 -1.48,-6c0,1.12 -0.1,2.24 -0.11,3.37c0,3.28 0.14,6.66 1.59,9.64c1.11,2.27 2.94,4.27 3.86,6.58a15.06,15.06 0 0 0 0.49,-5.37z"/>
    <path stroke="null" id="svg_32" d="m15732.990235,15421.65383c-1.82,8.72 -4.66,17.6 -3.78,26.34c0.57,-6.45 2.45,-12.94 3.78,-19.34a51,51 0 0 0 1.16,-14.82a61.14,61.14 0 0 1 -1.16,7.82z"/>
   </g>
   <path stroke="null" id="svg_33" fill="#fbbebe" d="m166.390248,197.433237c-0.31621,6.052399 -4.123799,11.053399 -5.574185,16.874185c-0.360636,1.45672 -0.577541,2.968296 -1.094976,4.354923c-1.045323,2.788492 -3.196075,4.812053 -5.487946,6.238298a8.242372,9.611916 0 0 1 -2.70216,1.145872a5.179575,6.040209 0 0 1 -5.203095,-3.227337c-0.598447,-1.417102 -0.682073,-3.047532 -1.045323,-4.571298c-0.405063,-1.758426 -1.162922,-3.379713 -1.656837,-5.107664c-0.909431,-3.178576 -0.891138,-6.658858 -0.261331,-9.925812a26.133074,30.475321 0 0 1 2.804079,-8.094245c0.182932,-0.374846 0.368476,-0.746645 0.559248,-1.115397a21.737491,25.349372 0 0 1 1.811022,-3.047532c1.567984,-2.203366 3.582844,-3.897794 5.576798,-5.567841a1.306654,1.523766 0 0 1 0.522661,-0.304753l0.03136,0a1.262227,1.471958 0 0 1 0.645487,0.176757a51.105839,59.597538 0 0 1 7.931388,5.010143c0.898978,0.697885 2.318004,1.478053 2.788399,2.666591s0.423356,3.202956 0.35541,4.49511z"/>
   <path stroke="null" id="svg_34" fill="#f86d70" d="m156.015417,169.581842a2.704773,3.154196 0 0 0 -0.580154,1.081874a43.866978,51.155874 0 0 0 -3.684763,17.55988a1.505265,1.755378 0 0 1 -0.169865,0.850261a3.190848,3.721037 0 0 1 -0.384156,0.484558a1.442546,1.682238 0 0 0 0.245651,2.438026c0.431196,-0.947782 1.463452,-1.255583 2.380723,-1.337867c4.39297,-0.405322 8.68402,1.977848 13.090057,1.798044c-0.310984,-1.252536 -0.757859,-2.456311 -1.01135,-3.724084c-1.121109,-5.628792 1.67513,-11.757379 -0.0392,-17.178938c-0.342343,-1.084921 -0.914658,-2.151558 -1.816249,-2.626973a4.837232,5.640982 0 0 0 -1.162922,-0.359609c-1.113269,-0.23466 -3.329354,-1.237298 -4.406036,-0.835024c-0.397223,0.149329 -0.554021,0.585126 -0.883298,0.847214c-0.488688,0.374846 -1.152469,0.50589 -1.578438,1.002638z"/>
   <path stroke="null" id="svg_35" opacity="0.1" d="m157.815986,219.972785a7.706643,8.987172 0 0 1 -6.533268,4.421969a5.148216,6.003638 0 0 1 -2.090646,-0.447987c-1.669903,-0.859404 -2.613307,-2.986581 -2.963491,-5.077188s-0.240424,-4.24826 -0.488688,-6.3602c-0.198611,-1.682238 -0.621967,-3.315715 -0.841485,-4.994905c-0.538341,-4.153786 0.522661,-8.255764 1.277907,-12.391266c0.182932,-0.374846 0.368476,-0.746645 0.559248,-1.115397a21.737491,25.349372 0 0 1 1.811022,-3.047532c1.567984,-2.203366 3.582844,-3.897794 5.576798,-5.567841l-2.090646,0a0.358023,0.417512 0 0 1 0.567088,0.289516c0.206451,2.133272 2.785786,4.266545 3.347647,6.338867c0.34757,1.273868 0.765699,2.523357 1.045323,3.821605a26.255899,30.618555 0 0 1 0.501755,3.352285q0.556634,4.732817 1.108042,9.44735c0.462555,3.836843 0.859778,7.984534 -0.786606,11.330724z"/>
   <path stroke="null" id="svg_36" fill="#fbbebe" d="m154.355967,179.958688l2.521842,-9.22488c0.376316,-1.380532 0.757859,-2.782397 0.802285,-4.233022s-0.282237,-2.971344 -1.152469,-4.007505c-0.705593,-0.838071 -1.68297,-1.270821 -2.519228,-1.92604c-2.090646,-1.64262 -3.135969,-4.51949 -4.225718,-7.167796s-2.524455,-5.418512 -4.902565,-6.399817c-0.548795,-0.225517 -1.306654,-0.243803 -1.552305,0.368751a1.110656,1.295201 0 0 0 -0.0392,0.798453c0.229971,1.40796 1.094976,2.532499 1.847608,3.657039c1.262227,1.904708 2.318004,4.23607 2.01486,6.61924c-0.360636,2.822015 -2.534908,5.010143 -2.796239,7.847395c-0.114986,1.249488 0.159412,2.502024 0.156798,3.760655c0,0.780168 -0.109759,1.575574 0.0392,2.337457a13.500346,15.743551 0 0 0 0.551408,1.730998a8.670954,10.111712 0 0 1 0.360636,2.806777l0.551408,11.995086c0.297917,6.488196 -2.720453,12.799635 -1.889421,19.199452c0.219518,1.67919 0.642874,3.312667 0.841485,4.994905c0.261331,2.11194 0.138505,4.266545 0.488688,6.3602s1.306654,4.217784 2.963491,5.077188a5.148216,6.003638 0 0 0 2.090646,0.447987a7.706643,8.987172 0 0 0 6.533268,-4.421969c1.646384,-3.352285 1.249161,-7.493881 0.799672,-11.315487l-1.108042,-9.44735a26.255899,30.618555 0 0 0 -0.501755,-3.352285c-0.277011,-1.298249 -0.69514,-2.547737 -1.045323,-3.821605c-1.121109,-4.165976 -1.959981,-8.54528 -0.831032,-12.683829z"/>
   <rect stroke="null" transform="matrix(0.2613307392320084,0,0,0.30475321090517987,-3915.2065577770663,-4570.681772611309) " id="svg_37" fill="#3f3d56" rx="7.97" height="142" width="223" y="15590.833699" x="15614.310158"/>
   <rect stroke="null" transform="matrix(0.2613307392320084,0,0,0.30475321090517987,-3915.2065577770663,-4570.681772611309) " id="svg_38" opacity="0.2" rx="7.97" height="142" width="223" y="15590.833699" x="15614.310158"/>
   <circle stroke="null" transform="matrix(0.2613307392320084,0,0,0.30475321090517987,-3915.2065577770663,-4570.681772611309) " id="svg_39" fill="#fff" r="6" cy="15661.833699" cx="15725.310158"/>
   <path stroke="null" id="svg_40" fill="#3f3d56" d="m125.536413,237.767324l3.164715,0a6.533268,7.61883 0 0 1 6.533268,7.61883l0,11.309392a0,0 0 0 1 0,0l-16.231252,0a0,0 0 0 1 0,0l0,-11.309392a6.533268,7.61883 0 0 1 6.533268,-7.61883z"/>
   <path stroke="null" id="svg_41" opacity="0.1" d="m125.536413,237.767324l3.164715,0a6.533268,7.61883 0 0 1 6.533268,7.61883l0,11.309392a0,0 0 0 1 0,0l-16.231252,0a0,0 0 0 1 0,0l0,-11.309392a6.533268,7.61883 0 0 1 6.533268,-7.61883z"/>
   <circle stroke="null" transform="matrix(0.2613307392320084,0,0,0.30475321090517987,-3915.2065577770663,-4570.681772611309) " id="svg_42" fill="#3f3d56" r="4.97" cy="15786.873699" cx="15465.760158"/>
   <circle stroke="null" transform="matrix(0.2613307392320084,0,0,0.30475321090517987,-3915.2065577770663,-4570.681772611309) " id="svg_43" fill="#3f3d56" r="4.97" cy="15780.663699" cx="15465.760158"/>
   <circle stroke="null" transform="matrix(0.2613307392320084,0,0,0.30475321090517987,-3915.2065577770663,-4570.681772611309) " id="svg_44" fill="#3f3d56" r="4.97" cy="15774.453699" cx="15465.760158"/>
   <circle stroke="null" transform="matrix(0.2613307392320084,0,0,0.30475321090517987,-3915.2065577770663,-4570.681772611309) " id="svg_45" fill="#3f3d56" r="4.97" cy="15768.243699" cx="15465.760158"/>
   <circle stroke="null" transform="matrix(0.2613307392320084,0,0,0.30475321090517987,-3915.2065577770663,-4570.681772611309) " id="svg_46" fill="#3f3d56" r="4.97" cy="15762.033699" cx="15465.760158"/>
   <circle stroke="null" transform="matrix(0.2613307392320084,0,0,0.30475321090517987,-3915.2065577770663,-4570.681772611309) " id="svg_47" fill="#3f3d56" r="4.97" cy="15755.823699" cx="15465.760158"/>
   <circle stroke="null" transform="matrix(0.2613307392320084,0,0,0.30475321090517987,-3915.2065577770663,-4570.681772611309) " id="svg_48" fill="#3f3d56" r="4.97" cy="15749.613699" cx="15465.760158"/>
   <circle stroke="null" transform="matrix(0.2613307392320084,0,0,0.30475321090517987,-3915.2065577770663,-4570.681772611309) " id="svg_49" fill="#3f3d56" r="4.97" cy="15752.093699" cx="15473.210158"/>
   <circle stroke="null" transform="matrix(0.2613307392320084,0,0,0.30475321090517987,-3915.2065577770663,-4570.681772611309) " id="svg_50" fill="#3f3d56" r="4.97" cy="15749.613699" cx="15478.180158"/>
   <circle stroke="null" transform="matrix(0.2613307392320084,0,0,0.30475321090517987,-3915.2065577770663,-4570.681772611309) " id="svg_51" fill="#3f3d56" r="4.97" cy="15747.123699" cx="15483.150158"/>
   <circle stroke="null" transform="matrix(0.2613307392320084,0,0,0.30475321090517987,-3915.2065577770663,-4570.681772611309) " id="svg_52" fill="#3f3d56" r="4.97" cy="15743.393699" cx="15465.760158"/>
   <circle stroke="null" transform="matrix(0.2613307392320084,0,0,0.30475321090517987,-3915.2065577770663,-4570.681772611309) " id="svg_53" fill="#3f3d56" r="4.97" cy="15737.183699" cx="15465.760158"/>
   <circle stroke="null" transform="matrix(0.2613307392320084,0,0,0.30475321090517987,-3915.2065577770663,-4570.681772611309) " id="svg_54" fill="#3f3d56" r="4.97" cy="15730.973699" cx="15465.760158"/>
   <circle stroke="null" transform="matrix(0.2613307392320084,0,0,0.30475321090517987,-3915.2065577770663,-4570.681772611309) " id="svg_55" fill="#3f3d56" r="4.97" cy="15724.763699" cx="15465.760158"/>
   <path stroke="null" id="svg_56" fill="#e1691d" d="m131.852777,216.605262c-0.321437,0.054856 -0.645487,0.094473 -0.969537,0.118854a7.463606,8.703752 0 0 0 0.836258,-0.999591a5.545438,6.466863 0 0 0 -0.783992,-1.776711a2.6708,3.114578 0 0 1 -1.045323,0.383989c-0.321437,0.054856 -0.645487,0.097521 -0.969537,0.121901a17.877636,20.848167 0 0 0 1.241321,-1.523766a5.514079,6.430293 0 1 0 1.826702,4.769388a5.40432,6.302296 0 0 0 -0.083626,-1.106254l-0.052266,0.01219z"/>
   <path stroke="null" id="svg_57" fill="#e1691d" d="m136.193481,224.129619a2.568881,2.995724 0 0 1 -1.092362,0.426654c-0.321437,0.054856 -0.645487,0.094473 -0.969537,0.118854a9.512439,11.093017 0 0 0 0.961697,-1.164157a3.250954,3.79113 0 1 0 1.100202,0.609506l0,0.009143z"/>
   <circle stroke="null" transform="matrix(0.2613307392320084,0,0,0.30475321090517987,-3915.2065577770663,-4570.681772611309) " id="svg_58" fill="#3f3d56" r="4.97" cy="15752.093699" cx="15458.300158"/>
   <circle stroke="null" transform="matrix(0.2613307392320084,0,0,0.30475321090517987,-3915.2065577770663,-4570.681772611309) " id="svg_59" fill="#3f3d56" r="4.97" cy="15749.613699" cx="15453.330158"/>
   <circle stroke="null" transform="matrix(0.2613307392320084,0,0,0.30475321090517987,-3915.2065577770663,-4570.681772611309) " id="svg_60" fill="#3f3d56" r="4.97" cy="15747.123699" cx="15448.360158"/>
   <path stroke="null" id="svg_61" fill="#e1691d" d="m116.74786,224.129619a2.555815,2.980486 0 0 0 1.092362,0.426654c0.321437,0.054856 0.645487,0.094473 0.969537,0.118854a9.256335,10.794359 0 0 1 -0.961697,-1.164157a3.250954,3.79113 0 1 1 -1.100202,0.609506l0,0.009143z"/>
   <path stroke="null" id="svg_62" fill="#3f3d56" d="m125.536413,238.904054l3.164715,0a6.533268,7.61883 0 0 1 6.533268,7.61883l0,10.017238a1.108042,1.292154 0 0 1 -1.108042,1.292154l-14.015168,0a1.108042,1.292154 0 0 1 -1.108042,-1.292154l0,-10.017238a6.533268,7.61883 0 0 1 6.533268,-7.61883z"/>
   <g stroke="null" transform="matrix(0.2613307392320084,0,0,0.30475321090517987,-3915.2065577770663,-4570.681772611309) " id="svg_63" opacity="0.1">
    <path stroke="null" id="svg_64" d="m15486.730235,15710.09383a18.83,18.83 0 0 1 -1.6,1.52c0.57,0 1.13,-0.09 1.7,-0.15c-0.02,-0.46 -0.05,-0.92 -0.1,-1.37z"/>
    <path stroke="null" id="svg_65" d="m15477.670235,15704.15383c1.25,-0.08 2.48,-0.21 3.72,-0.39a12,12 0 0 0 3.23,-0.88a21.92,21.92 0 0 0 -1.74,-2.87a7.52,7.52 0 0 1 -2,0.85a28.79,28.79 0 0 1 -3.21,3.29z"/>
    <path stroke="null" id="svg_66" d="m15447.120235,15714.82383a21.08,21.08 0 0 1 32.5,-17.76l0.32,-0.34a21.1,21.1 0 1 0 -27.82,31.73a21,21 0 0 1 -5,-13.63z"/>
   </g>
   <g stroke="null" transform="matrix(0.2613307392320084,0,0,0.30475321090517987,-3915.2065577770663,-4570.681772611309) " id="svg_67" opacity="0.1">
    <path stroke="null" id="svg_68" d="m15495.070235,15737.69383c1.24,-0.08 2.48,-0.21 3.71,-0.39a9.7,9.7 0 0 0 4.18,-1.4a12.43,12.43 0 0 1 5,8.8a11.38,11.38 0 0 0 0.07,-1.31a12.38,12.38 0 0 0 -5,-10a9.83,9.83 0 0 1 -4.18,1.4l-1,0.12a25.37,25.37 0 0 1 -2.78,2.78z"/>
    <path stroke="null" id="svg_69" d="m15495.570235,15733.45383a10.19,10.19 0 0 1 1.24,0.09c0.65,-0.69 1.29,-1.43 1.94,-2.15a12.4,12.4 0 0 0 -15.6,12c0,0.42 0,0.83 0.06,1.24a12.42,12.42 0 0 1 12.36,-11.18z"/>
   </g>
   <g stroke="null" transform="matrix(0.2613307392320084,0,0,0.30475321090517987,-3915.2065577770663,-4570.681772611309) " id="svg_70" opacity="0.1">
    <path stroke="null" id="svg_71" d="m15436.440235,15737.69383c-1.24,-0.08 -2.48,-0.21 -3.71,-0.39a9.65,9.65 0 0 1 -4.18,-1.4a12.43,12.43 0 0 0 -5,8.8a11.38,11.38 0 0 1 -0.07,-1.31a12.38,12.38 0 0 1 5,-10a9.78,9.78 0 0 0 4.18,1.4l1,0.12a23.67,23.67 0 0 0 2.78,2.78z"/>
    <path stroke="null" id="svg_72" d="m15435.940235,15733.45383a10.36,10.36 0 0 0 -1.25,0.09c-0.64,-0.69 -1.28,-1.43 -1.93,-2.15a12.4,12.4 0 0 1 15.6,12c0,0.42 0,0.83 -0.06,1.24a12.42,12.42 0 0 0 -12.36,-11.18z"/>
   </g>
   <rect stroke="null" transform="matrix(0.2613307392320084,0,0,0.30475321090517987,-3915.2065577770663,-4570.681772611309) " id="svg_73" fill="#e1691d" height="88" width="226" y="15346.823699" x="15170.850158"/>
   <rect stroke="#3f3d56" transform="matrix(0.2613307392320084,0,0,0.30475321090517987,-3915.2065577770663,-4570.681772611309) " id="svg_74" stroke-width="9" stroke-miterlimit="10" fill="none" rx="12" height="88" width="371" y="15346.823699" x="15170.850158"/>
   <path stroke="null" id="svg_75" fill="#fff" d="m102.521015,118.285781a4.730086,5.516033 0 0 0 -8.840819,-1.459768a3.784069,4.412826 0 0 0 0.410289,8.801273l8.211012,0a3.164715,3.690561 0 0 0 3.156875,-3.696656a3.117676,3.635706 0 0 0 -2.937358,-3.644848zm-3.629884,2.17289l0,2.797634l-2.0227,0l0,-2.797634l-2.145525,0l3.156875,-3.684466l3.156875,3.684466l-2.145525,0z"/>
  </g>
 </g>
</svg>