<svg width="800" height="600" xmlns="http://www.w3.org/2000/svg">
 <!-- Created with Method Draw - http://github.com/duopixel/Method-Draw/ -->

 <g>
  <title>background</title>
  <rect fill="#4c4c4c" id="canvas_background" height="602" width="802" y="-1" x="-1"/>
  <g display="none" overflow="visible" y="0" x="0" height="100%" width="100%" id="canvasGrid">
   <rect fill="url(#gridpattern)" stroke-width="0" y="0" x="0" height="100%" width="100%"/>
  </g>
 </g>
 <g>
  <title>Layer 1</title>
  <defs>
   <linearGradient y2="-0.000072" x2="0.499883" y1="1.000005" x1="0.499883" id="svg_5">
    <stop stop-opacity="0.25" stop-color="gray" offset="0"/>
    <stop stop-opacity="0.12" stop-color="gray" offset="0.54"/>
    <stop stop-opacity="0.1" stop-color="gray" offset="1"/>
   </linearGradient>
  </defs>
  <g stroke="null" id="svg_76">
   <path stroke="null" id="svg_7" opacity="0.1" fill="#e1691d" d="m466.780136,124.709103c-50.474669,-1.624547 -98.547267,-16.707568 -144.459562,-33.212969s-91.372252,-34.794195 -140.638087,-43.501769c-31.687049,-5.624544 -67.920873,-6.418767 -93.454566,9.306852c-24.566626,15.162442 -32.505936,41.263504 -36.779749,65.501751c-3.20536,18.245472 -5.1005,37.436792 3.704491,54.512591c6.106561,11.855586 16.954872,21.819477 24.457441,33.176868c26.095216,39.508993 7.650749,88.230975 -20.635966,126.80856c-13.258179,18.093848 -28.653265,35.379032 -38.893259,54.628114s-14.973944,41.335706 -6.020773,60.98912c8.88298,19.494569 30.041475,34.108275 52.954728,44.397076c46.551807,20.89529 101.386077,26.880844 154.902328,30.267123c118.40334,7.501799 237.446193,4.252704 356.16149,1.003609c43.939166,-1.205775 88.065506,-2.425991 131.287171,-8.714794c24.005104,-3.494582 48.7901,-9.039704 66.212907,-22.382653c22.117763,-16.989156 27.60041,-45.761695 12.782445,-67.061317c-24.862986,-35.732823 -93.587148,-44.613682 -110.986559,-82.960221c-9.569286,-21.104676 0.257365,-44.620902 14.155056,-64.194893c29.823105,-41.999966 79.806441,-78.83748 82.442479,-126.844661c1.809352,-32.967482 -22.219149,-65.985505 -59.373247,-81.588381c-38.947852,-16.353777 -92.947636,-14.296017 -121.663293,12.772553c-29.604735,27.805031 -81.592395,38.527044 -126.155476,37.097442z"/>
   <g stroke="null" transform="matrix(0.7798929015334259,0,0,0.722021068478699,-7664.495730183431,-5294.88104243759) " id="svg_8" opacity="0.1">
    <path stroke="null" id="svg_9" fill="#e1691d" d="m9918.254263,7723.098288s-74.74,-31.44 -84.57,25.25c0,0 -5.11,8.84 2,16.14c0,0 1.53,-3.92 8.75,0.13a37.17,37.17 0 0 0 8.16,3.32a18.36,18.36 0 0 0 11.62,-0.62l0,0s24.59,-1.33 45.27,-33.5c0,0 8.87,-5.48 9.31,-7.54l-14.82,1s1.14,10.85 -5,17.36c0,0 5.44,-16.84 2.83,-17.31c-0.53,-0.1 -7.83,0.86 -7.83,0.86s1.89,18.87 -8,28.63c0,0 9.18,-19.19 5.19,-28.29l-10.94,2.11s3,19.85 -7.82,31.39c0,0 8.9,-20.4 5.46,-30.76l-10.47,3.52s2.52,19.41 -6.53,29c0,0 7.9,-24.61 4.18,-28c0,0 -9.42,3.82 -11.43,6c0,0 1.49,14 -4.26,19.05c0,0 3.53,-17 1.78,-17.7c0,0 -10.94,8.24 -14.28,15.35c0,0 4.16,-10.86 12.91,-17c0,0 -7.35,-1.24 -13,1.83c0,0 3.78,-7.21 15.65,-3.79c0,0 8.79,-6.09 10.55,-6c0,0 -11.23,-5 -19.34,-4.38c0,0 8.7,-5 22.08,3.35l10.45,-3.77s-14.5,-7.43 -21.76,-7.4c0,0 9.66,-3.74 24.47,6.66l10.7,-2.18s-12,-7.35 -20.09,-9.06c0,0 9.7,-1.54 23.18,8.55l7.31,-0.61s-8.85,-5.22 -11.53,-6.49s-2.56,-2.09 -2.56,-2.09a34.89,34.89 0 0 1 17.16,8.26s15.16,-0.34 15.22,-1.27z"/>
   </g>
   <g stroke="null" transform="matrix(0.7798929015334259,0,0,0.722021068478699,-7664.495730183431,-5294.88104243759) " id="svg_10" opacity="0.1">
    <path stroke="null" id="svg_11" fill="#e1691d" d="m9915.514263,7666.738288s-26.51,-61.27 -64.63,-33.17c0,0 -8.06,2.34 -8,10.7c0,0 3.14,-1.46 5.13,5.07a30.1,30.1 0 0 0 3,6.61a15,15 0 0 0 7.25,6.25l0,0s15.37,13.22 46,5.89c0,0 8.4,1.79 9.83,0.83l-9.36,-7.87s-5.51,7.1 -12.89,7.44c0,0 12.83,-6.9 11.55,-8.67c-0.26,-0.36 -5.15,-3.94 -5.15,-3.94s-9.62,12.28 -21,12.47c0,0 16.39,-6.18 19.2,-13.85l-7.7,-5s-9.54,13.49 -22.53,14.19c0,0 16.91,-7.05 20.77,-15.17l-8.23,-3.87s-9.56,13 -20.37,13.49c0,0 18.72,-10.12 18.43,-14.25c0,0 -7.77,-3.1 -10.24,-2.92c0,0 -7.07,9.15 -13.38,8.89c0,0 11.79,-8.09 11.15,-9.5c0,0 -11.2,-1.34 -17.23,1c0,0 8.66,-4.08 17.35,-2.74c0,0 -3.66,-4.93 -8.75,-6.3c0,0 6.36,-2.13 11.46,6.65c0,0 8.68,1.4 9.7,2.44c0,0 -3.81,-9.39 -9,-13.62c0,0 8,2 11.2,14.57l8.36,3.71s-4.38,-12.68 -8.72,-16.79c0,0 7.87,3.28 10.75,17.9l7.6,4.79s-2.94,-11.2 -6.77,-16.83c0,0 6.64,4.62 8.89,18.29l4.7,3.8s-2.29,-8.14 -3.16,-10.42s-0.33,-2.7 -0.33,-2.7a28.65,28.65 0 0 1 5.49,14.68s9.04,8.46 9.63,7.95z"/>
   </g>
   <path stroke="null" id="svg_12" fill="url(#svg_5)" d="m731.187226,525.972312c-0.779893,-2.613716 -1.559786,-5.263534 -3.119572,-7.5379a28.294514,26.194924 0 0 0 -5.116097,-5.176891c-5.654224,-4.758119 -12.603069,-9.58844 -20.09784,-8.382665a26.516359,24.548716 0 0 0 -6.675883,2.252706c-1.09185,0.469314 -2.191499,0.938627 -3.314545,1.335739a16.53373,15.306847 0 0 1 -10.006026,0.808664c-1.715764,-0.425992 -3.314545,-1.191335 -5.006912,-1.667869a16.159381,14.960277 0 0 0 -2.464462,-0.490974a45.374169,42.007186 0 0 0 4.757347,-2.317688c8.415044,-4.815881 15.129922,-13.480133 14.186252,-22.649801c-0.311957,-3.104691 -1.466199,-6.072197 -2.604842,-8.996383q-1.497394,-3.833932 -3.002588,-7.675084c-1.294622,-3.328517 -2.628239,-6.714796 -4.999113,-9.480137c-2.636038,-3.07581 -6.379524,-5.162451 -10.247793,-6.722016c-8.313658,-3.342958 -17.399411,-4.519852 -26.368179,-5.660645l-0.623914,-0.079422l0,-89.703898a6.239143,5.776169 0 0 0 -6.239143,-5.81227l-11.79978,0q-0.779893,-4.418769 -1.559786,-8.830318c-1.489595,-8.382665 -3.025984,-16.931394 -7.198411,-24.483734c-2.729625,-4.945844 -7.081428,-9.653422 -12.938423,-10.62815a12.899429,11.942228 0 0 1 -3.369137,-0.722021c-1.715764,-0.779783 -2.651636,-2.512633 -3.977454,-3.797831c-3.400333,-3.299636 -8.929774,-3.350178 -13.492147,-5.054147c-4.024247,-1.480143 -7.315395,-4.274365 -10.980892,-6.418767s-8.22787,-3.675087 -12.291112,-2.274366c0,0.274368 -0.054593,0.541516 -0.085788,0.815884l-2.604842,-1.083032c-2.807614,-1.198555 -5.67762,-2.440431 -7.931511,-4.418769c-2.901202,-2.534294 -4.44539,-5.877251 -5.646425,-9.444036c-0.124783,-0.375451 -0.241767,-0.722021 -0.358751,-1.119133a36.288417,33.59564 0 0 0 9.701868,-17.162441c0.210571,0.628158 0.428941,1.263537 0.639512,1.898915a10.824913,10.021652 0 0 0 0.779893,1.870035a5.350065,4.953065 0 0 0 0.36655,0.570397a3.977454,3.682307 0 0 0 0.951469,0.916967a2.659435,2.462092 0 0 0 1.255628,0.454873a2.339679,2.166063 0 0 0 0.65511,0a3.603105,3.335737 0 0 0 2.62044,-2.0722a4.679357,4.332126 0 0 0 0.272963,-0.880866a4.921124,4.555953 0 0 0 0.054593,-0.548736c0,-0.057762 0,-0.115523 0,-0.173285s0,-0.252707 0,-0.375451s0,-0.137184 0,-0.202166s0,-0.245487 0,-0.361011l0,-0.187725c0,-0.144404 -0.046794,-0.288808 -0.077989,-0.425992s0,-0.079422 0,-0.115523c-0.038995,-0.187725 -0.085788,-0.368231 -0.124783,-0.555956a0.779893,0.722021 0 0 1 0,-0.122744l-0.116984,-0.454873l-0.07019,-0.274368l0,-0.072202l0,0c-0.077989,-0.281588 -0.14818,-0.570397 -0.21837,-0.859205a26.859512,24.866406 0 0 1 -0.428941,-7.631763a89.289938,82.664192 0 0 1 2.230494,-11.090244l0.163778,-0.657039l0.187174,-0.765342c0.124783,-0.519855 0.241767,-1.03971 0.358751,-1.559566l0,0c0.101386,-0.440433 0.194973,-0.888086 0.280761,-1.335739s0.14818,-0.787003 0.210571,-1.184115c0,-0.050541 0,-0.093863 0,-0.144404a37.060511,34.310441 0 0 0 0.382148,-8.144398l0,0c-0.36655,-3.77617 -1.629976,-7.350174 -4.406395,-10.202158c-1.957531,-2.014439 -4.531178,-3.501802 -6.348328,-5.617324c-1.707965,-1.985558 -2.667234,-4.425989 -4.429792,-6.368226c-4.874331,-5.386277 -17.376014,-9.537898 -25.05016,-10.259919c-8.789393,-0.823104 -22.991243,1.256317 -30.07267,6.064977c-2.62044,1.776172 -4.414194,4.332126 -6.239143,6.765337c-3.353539,4.519852 -7.167216,9.025263 -12.540678,11.552337c-2.03552,0.953068 -4.359601,1.675089 -5.708816,3.335737a9.818852,9.090245 0 0 0 -1.559786,3.747289a79.712853,73.797773 0 0 0 -1.606579,14.296017a19.037186,17.624534 0 0 0 0.857882,6.209381c0.109185,0.274368 0.241767,0.555956 0.382148,0.823104l0,0c0.124783,0.238267 0.265164,0.476534 0.413343,0.722021l0.093587,0.151624a32.40455,29.999975 0 0 1 2.503456,3.935015a6.161154,5.703966 0 0 1 0.374349,1.198555a9.584884,8.873639 0 0 1 -0.21837,3.169672l0,0c0,0.158845 -0.062391,0.310469 -0.101386,0.462093l-0.07019,0.33213c0,0.101083 0,0.209386 -0.062391,0.310469q-0.093587,0.469314 -0.163778,0.931407c0,0.216606 -0.046794,0.440433 -0.054593,0.664259a5.856996,5.422378 0 0 0 0.538126,2.599276a3.571909,3.306856 0 0 0 0.36655,0.548736a3.119572,2.888084 0 0 0 1.052855,0.830324a11.807579,10.931399 0 0 0 2.885604,0.635379c2.916799,0.606498 4.741749,2.671478 5.927186,5.205772a19.856073,18.382656 0 0 1 0.694105,1.740071a33.246834,30.779758 0 0 1 1.09185,4.527072c1.325818,-0.064982 2.097912,-1.148013 2.565848,-2.332128a11.854372,10.97472 0 0 0 0.36655,-1.191335c0.179375,-0.758122 0.358751,-1.516244 0.545925,-2.274366a36.257221,33.566759 0 0 0 14.240844,14.527064c0.21837,0.592057 0.428941,1.191335 0.623914,1.797832c1.02166,3.270755 1.512992,6.700356 -0.257365,9.559559c-1.263427,2.028879 -3.392534,3.285196 -5.763409,4.151621a3.813676,3.530683 0 0 0 -1.286823,-1.01805c-2.058917,-0.953068 -4.523379,0.209386 -6.239143,1.631768c-3.119572,2.613716 -5.662022,6.361006 -9.772058,7.220211c-1.481797,0.317689 -3.119572,0.252707 -4.359601,1.090252a10.076216,9.328512 0 0 0 -2.019923,2.462092a9.304122,8.613711 0 0 1 -7.986103,3.682307c-1.427204,-0.064982 -3.119572,-0.368231 -4.094438,0.599277c-0.7253,0.722021 -0.779893,1.870035 -1.559786,2.555955c-1.052855,0.953068 -2.760821,0.483754 -4.22702,0.425992a7.798929,7.220211 0 0 0 -5.654224,2.267146a13.304973,12.317679 0 0 0 -3.400333,-7.87003c-2.105711,-2.007219 -5.030309,-3.039709 -7.525966,-4.613715c-6.239143,-3.927795 -9.358715,-10.830316 -12.610868,-17.155221s-7.541564,-12.996379 -14.63859,-15.299626c-1.629976,-0.534296 -3.899465,-0.577617 -4.632564,0.888086a3.454926,3.198553 0 0 0 -0.116984,1.913356c0.686306,3.364618 3.27555,6.064977 5.513843,8.772556c3.766883,4.563173 6.925449,10.144396 6.012974,15.848362c-1.068453,6.750897 -7.564961,11.99277 -8.344854,18.772548c-0.343153,2.989167 0.475735,5.992775 0.467936,8.996383c0,1.877255 -0.319756,3.77617 0.116984,5.602883a41.045763,37.999969 0 0 0 1.645574,4.079419a25.806656,23.891677 0 0 1 1.076252,6.722016q0.826686,14.353779 1.645574,28.714778c0.413343,7.140788 -1.271225,14.187714 -2.971392,21.212979a71.898327,66.563122 0 0 0 -4.88213,12.996379c-1.918537,7.819488 -1.973129,16.151611 0.779893,23.761713c1.473998,4.137181 3.735687,8.014434 4.944521,12.223817c0,0.093863 0.046794,0.180505 0.07019,0.267148c0.116984,0.895306 0.249566,1.790612 0.428941,2.678698a27.810981,25.747271 0 0 0 0.865681,3.032488a23.342195,21.610091 0 0 0 1.715764,4.960285a14.989542,13.877245 0 0 0 4.679357,5.054147c-1.123046,2.036099 -2.940196,3.675087 -4.14903,5.667865c-2.105711,3.451261 -2.191499,7.689524 -1.427204,11.602879c1.473998,7.55234 5.880392,14.303237 11.698394,19.790597a6.76947,6.267143 0 0 0 -0.779893,0a12.228721,11.32129 0 0 0 -5.334467,1.768952c-12.314509,6.664254 -19.356942,20.938611 -16.783295,34.007192c0.50693,2.555955 1.388209,5.14079 3.228757,7.083027a12.135134,11.234648 0 0 0 5.685419,3.227434a19.723491,18.259913 0 0 0 4.188025,0.722021c9.600482,0.722021 18.896805,-3.400719 28.520683,-3.747289a76.811652,71.111855 0 0 1 9.553688,0.411552q6.948846,0.534296 13.928887,0.6787c7.557162,0.166065 11.815377,-1.69675 16.642915,-6.931402a20.183628,18.685905 0 0 0 2.940196,-4.288805c4.102237,-0.216606 8.633414,-0.548736 11.916764,-0.801443l0.046794,0.425992c0.179375,1.444042 0.452338,3.104691 1.700167,4.021657a6.075366,5.624544 0 0 0 2.339679,0.880866c7.884717,1.797832 15.863022,3.610105 23.973908,3.610105a101.167707,93.660573 0 0 0 11.386436,-0.815884l14.27204,-1.523464a72.693817,67.299584 0 0 1 12.252117,2.469312c4.117835,1.299638 7.970505,3.227434 11.994753,4.743678c9.358715,3.516243 19.434931,4.772559 29.409761,5.999995c1.700167,0.209386 3.649899,0.35379 4.913325,-0.722021c1.622177,-1.444042 1.076252,-3.862813 0.623914,-5.884472c-0.187174,-0.823104 -0.327555,-1.660648 -0.444539,-2.498193a135.311418,125.270655 0 0 1 19.700095,6.332125l1.123046,0.454873c0.319756,1.574006 1.89514,2.837543 3.400333,4.534292a12.400297,11.480135 0 0 0 1.723563,1.971118a5.654224,5.234653 0 0 0 2.47226,0.830324a115.517737,106.945761 0 0 0 31.975609,1.335739a32.755502,30.324885 0 0 1 6.590095,-0.209386a27.795383,25.732831 0 0 1 4.757347,0.996389l9.03116,2.38989c6.652486,1.768952 13.476549,3.552344 20.378602,3.155232a27.070083,25.061351 0 0 0 4.164628,-0.555956c5.45925,-1.169674 10.551951,-3.999997 13.172391,-8.548729c3.517317,-6.187721 1.809352,-13.790602 -0.194973,-20.54872zm-264.898423,-112.931315a28.380303,26.274347 0 0 1 -2.604842,9.032484c-0.967067,1.812273 -2.214896,3.480142 -3.119572,5.299635c-0.857882,1.646208 -1.497394,4.758119 -1.879542,8.173278c-0.467936,-0.072202 -0.94367,-0.137184 -1.411606,-0.187725c0.694105,-2.252706 1.216633,-4.563173 1.910738,-6.823099c1.645574,-5.371837 4.351802,-10.447645 7.104824,-15.494572z"/>
   <path stroke="null" id="svg_13" fill="#fbbebe" d="m478.306953,524.087837c-1.645574,-3.465701 -3.20536,-7.451257 -1.559786,-10.916959a10.021624,9.277971 0 0 1 5.186288,-4.512632a24.956573,23.104674 0 0 1 7.019036,-1.602887a97.962347,90.693066 0 0 1 22.819666,-0.288808c0.553724,4.057758 -0.616115,8.173278 -1.622177,12.093853c-0.912475,3.610105 -1.435003,4.144401 -5.45925,4.332126c-2.604842,0.129964 -25.767661,2.173283 -26.383777,0.895306z"/>
   <ellipse stroke="null" transform="matrix(0.7798929015334259,0,0,0.722021068478699,-7664.495730183431,-5294.88104243759) " id="svg_14" fill="#464353" ry="40" rx="143" cy="7986.898507" cx="10529.974217"/>
   <ellipse stroke="null" transform="matrix(0.7798929015334259,0,0,0.722021068478699,-7664.495730183431,-5294.88104243759) " id="svg_15" opacity="0.1" ry="40" rx="143" cy="7986.898507" cx="10529.974217"/>
   <path stroke="null" id="svg_16" fill="#fbbebe" d="m567.75287,319.365983a34.697435,32.122717 0 0 1 -17.890743,15.046919a44.906233,41.573973 0 0 1 -14.162855,2.498193c-5.295473,0.223827 -10.700131,-0.093863 -15.675847,-1.768952c-6.675883,-2.238265 -12.220922,-6.815879 -16.377751,-12.151615s-7.019036,-11.429594 -9.506894,-17.573993c-1.31022,-3.198553 -2.558049,-6.606493 -1.941933,-9.985551c4.016448,-0.844765 8.415044,-2.086641 10.48956,-5.386277c1.770357,-2.830323 1.279024,-6.223822 0.257365,-9.458476c-0.28856,-0.916967 -0.623914,-1.826713 -0.959268,-2.700359c-0.779893,-2.093861 -3.470523,-6.072197 -1.59878,-7.862809c1.193236,-1.133573 6.19235,-1.71119 7.915913,-2.447651c5.311071,-2.267146 10.208798,-5.545122 16.042397,-6.620933c5.045907,-0.931407 10.255592,-0.057762 15.2937,0.909747a5.030309,4.657036 0 0 1 1.887341,0.628158a4.538977,4.202163 0 0 1 1.403807,1.949457c1.435003,3.234654 2.277287,6.808659 3.431529,10.180497c1.201035,3.530683 2.745223,6.84476 5.638626,9.350173c2.25389,1.956677 5.123896,3.184113 7.931511,4.375448l6.909851,2.931406a9.085752,8.411545 0 0 1 3.267751,1.956677a8.274664,7.660644 0 0 1 1.559786,3.927795a39.634157,36.693111 0 0 1 -3.915062,22.202148z"/>
   <path stroke="null" id="svg_17" opacity="0.1" d="m546.329212,274.622338a35.875073,33.212969 0 0 1 -43.385442,5.963894c-0.28856,-0.916967 -0.623914,-1.826713 -0.959268,-2.700359c-0.779893,-2.093861 -3.470523,-6.072197 -1.59878,-7.862809c1.193236,-1.133573 6.19235,-1.71119 7.915913,-2.447651c5.311071,-2.267146 10.208798,-5.545122 16.042397,-6.620933c5.045907,-0.931407 10.255592,-0.057762 15.2937,0.909747a5.030309,4.657036 0 0 1 1.887341,0.628158a4.538977,4.202163 0 0 1 1.403807,1.949457c1.403807,3.234654 2.246092,6.808659 3.400333,10.180497z"/>
   <circle stroke="null" transform="matrix(0.7798929015334259,0,0,0.722021068478699,-7664.495730183431,-5294.88104243759) " id="svg_18" fill="#fbbebe" r="46" cy="7679.898507" cx="10494.974217"/>
   <path stroke="null" id="svg_19" fill="#f86d70" d="m629.762154,357.95801l-2.947995,-16.534282c-1.489595,-8.296022 -3.025984,-16.750889 -7.190613,-24.223807c-2.737424,-4.895303 -7.081428,-9.559559 -12.938423,-10.527067a12.517281,11.588438 0 0 1 -3.369137,-0.722021c-1.715764,-0.765342 -2.651636,-2.483752 -3.969655,-3.75451c-3.400333,-3.263535 -8.937573,-3.314077 -13.492147,-4.974725c-4.024247,-1.444042 -7.315395,-4.223823 -10.980892,-6.346565s-8.22787,-3.610105 -12.283313,-2.252706c-0.65511,6.462089 -1.349215,13.068581 -4.312808,18.953053a30.634193,28.360988 0 0 1 -46.216453,10.657031c-6.948846,-4.844761 -11.402034,-12.317679 -13.476549,-20.137168c-0.50693,-1.906136 -1.084051,-4.093859 -2.979191,-4.967505c-2.051118,-0.953068 -4.51558,0.202166 -6.239143,1.602887c-3.158566,2.592056 -5.669821,6.303244 -9.772058,7.176889c-1.481797,0.317689 -3.119572,0.252707 -4.351802,1.083032a9.90464,9.169668 0 0 0 -2.027722,2.433211a9.358715,8.664253 0 0 1 -7.978304,3.653427c-1.427204,-0.064982 -3.119572,-0.368231 -4.094438,0.592057c-0.7253,0.722021 -0.779893,1.848374 -1.559786,2.519854c-1.052855,0.945848 -2.760821,0.483754 -4.22702,0.433213c-2.776419,-0.108303 -5.357864,1.537905 -6.948846,3.610105s-2.339679,4.635375 -3.119572,7.119128c8.524229,17.573993 16.323158,35.169646 24.847388,52.743639a4.858733,4.498191 0 0 1 0.616115,2.166063a5.701017,5.277974 0 0 1 -1.060654,2.166063c-4.180226,6.216601 -4.047644,14.03609 -3.587507,21.342943s1.02166,15.025258 -2.503456,21.57399c-0.959268,1.797832 -2.207097,3.44404 -3.119572,5.241873c-2.136907,4.072199 -2.909001,17.097459 -1.661172,21.472907l176.255796,0c-3.361338,-8.55595 -2.082314,-25.725611 -1.38041,-34.808636c0.491333,-6.353785 -0.779893,-12.700351 -1.325818,-19.054136c-1.146443,-12.974719 -0.28856,-25.285178 -2.604842,-38.238236z"/>
   <path stroke="null" id="svg_20" fill="#464353" d="m638.785515,445.00487c2.597043,-0.916967 5.45925,-0.584837 8.243468,-0.238267c8.960969,1.133573 18.054521,2.296027 26.36038,5.610104c3.899465,1.545125 7.611755,3.610105 10.247793,6.649814c2.339679,2.73646 3.704491,6.086638 4.999113,9.386274l2.994789,7.574001c1.138644,2.888084 2.292885,5.83393 2.612641,8.90252c0.935871,9.090245 -5.779006,17.660635 -14.225247,22.382653s-18.389875,6.404327 -28.076144,8.166058s-19.411534,3.711188 -29.05881,5.776169a116.983935,108.30316 0 0 1 -13.671523,2.490973c-10.325782,1.083032 -21.1195,-0.512635 -30.930552,2.649817c-3.899465,1.263537 -7.728739,3.140792 -11.776383,4.014437a73.25534,67.819439 0 0 1 -8.134283,1.212995l-18.56925,1.963897a101.300289,93.783317 0 0 1 -11.386436,0.808664c-8.110886,0 -16.089191,-1.776172 -23.966109,-3.552344a6.059768,5.610104 0 0 1 -2.339679,-0.873645c-1.247829,-0.909747 -1.520791,-2.519854 -1.700167,-3.978336q-1.193236,-9.682303 -2.090113,-19.386266c-0.187174,-2.101081 -0.327555,-4.375448 0.912475,-6.144399c1.559786,-2.166063 4.601368,-2.844763 7.377787,-3.263535a192.53996,178.252561 0 0 1 35.625508,-2.288807c4.531178,-4.194942 12.002552,-4.216603 17.937537,-6.49819a53.336876,49.379021 0 0 0 6.324931,-3.184113a82.668648,76.534233 0 0 1 34.713033,-10.158836a32.326561,29.927773 0 0 0 7.104824,-0.938627c4.593569,-1.321299 8.781594,-4.916963 13.499946,-4.036098c0.58492,-1.494584 0.990464,-3.494582 2.339679,-4.519852c0.670708,-0.527075 1.497394,-0.880866 2.11351,-1.444042c1.302421,-1.220216 1.419405,-3.140792 1.224432,-4.844761s-0.631713,-3.451261 -0.155979,-5.111909a7.635152,7.068586 0 0 1 0.865681,-1.783392c2.347478,-3.797831 5.880392,-5.703966 10.583147,-5.342956z"/>
   <path stroke="null" id="svg_21" opacity="0.05" d="m638.785515,445.00487c2.597043,-0.916967 5.45925,-0.584837 8.243468,-0.238267c8.960969,1.133573 18.054521,2.296027 26.36038,5.610104c3.899465,1.545125 7.611755,3.610105 10.247793,6.649814c2.339679,2.73646 3.704491,6.086638 4.999113,9.386274l2.994789,7.574001c1.138644,2.888084 2.292885,5.83393 2.612641,8.90252c0.935871,9.090245 -5.779006,17.660635 -14.225247,22.382653s-18.389875,6.404327 -28.076144,8.166058s-19.411534,3.711188 -29.05881,5.776169a116.983935,108.30316 0 0 1 -13.671523,2.490973c-10.325782,1.083032 -21.1195,-0.512635 -30.930552,2.649817c-3.899465,1.263537 -7.728739,3.140792 -11.776383,4.014437a73.25534,67.819439 0 0 1 -8.134283,1.212995l-18.56925,1.963897a101.300289,93.783317 0 0 1 -11.386436,0.808664c-8.110886,0 -16.089191,-1.776172 -23.966109,-3.552344a6.059768,5.610104 0 0 1 -2.339679,-0.873645c-1.247829,-0.909747 -1.520791,-2.519854 -1.700167,-3.978336q-1.193236,-9.682303 -2.090113,-19.386266c-0.187174,-2.101081 -0.327555,-4.375448 0.912475,-6.144399c1.559786,-2.166063 4.601368,-2.844763 7.377787,-3.263535a192.53996,178.252561 0 0 1 35.625508,-2.288807c4.531178,-4.194942 12.002552,-4.216603 17.937537,-6.49819a53.336876,49.379021 0 0 0 6.324931,-3.184113a82.668648,76.534233 0 0 1 34.713033,-10.158836a32.326561,29.927773 0 0 0 7.104824,-0.938627c4.593569,-1.321299 8.781594,-4.916963 13.499946,-4.036098c0.58492,-1.494584 0.990464,-3.494582 2.339679,-4.519852c0.670708,-0.527075 1.497394,-0.880866 2.11351,-1.444042c1.302421,-1.220216 1.419405,-3.140792 1.224432,-4.844761s-0.631713,-3.451261 -0.155979,-5.111909a7.635152,7.068586 0 0 1 0.865681,-1.783392c2.347478,-3.797831 5.880392,-5.703966 10.583147,-5.342956z"/>
   <path stroke="null" id="svg_22" fill="#3f3d56" d="m485.481967,528.549927c-4.827537,5.176891 -9.077953,7.025265 -16.635116,6.8592q-6.972243,-0.151624 -13.928887,-0.67148a78.145269,72.346511 0 0 0 -9.545889,-0.411552c-9.623878,0.34657 -18.912403,4.425989 -28.512884,3.711188a20.214824,18.714786 0 0 1 -4.188025,-0.722021a12.189726,11.285189 0 0 1 -5.654224,-3.184113c-1.840547,-1.927796 -2.721826,-4.483751 -3.228757,-7.010825c-2.565848,-12.953058 4.468786,-27.06135 16.783295,-33.653402a12.30671,11.393492 0 0 1 5.334467,-1.754511a12.642064,11.703962 0 0 1 5.396859,1.097472l0.116984,0.043321a40.811796,37.783363 0 0 1 13.367364,8.259921a7.533765,6.974724 0 0 0 2.043319,1.523464a7.019036,6.49819 0 0 0 2.409869,0.418772l10.247793,0.599277a24.285865,22.483736 0 0 1 5.147293,0.657039a40.913182,37.877225 0 0 1 5.412457,2.166063c5.513843,2.281587 11.628203,2.888084 17.586585,3.76895a2.628239,2.433211 0 0 1 1.559786,0.577617a2.441065,2.259926 0 0 1 0.483534,0.938627a19.895068,18.418757 0 0 1 -4.195824,16.78699z"/>
   <path stroke="null" id="svg_23" opacity="0.1" d="m431.388596,492.853206a61.53355,56.967462 0 0 0 -10.255592,11.870026a64.169588,59.407894 0 0 0 -8.37605,23.494566a47.105531,43.610073 0 0 0 -0.085788,9.104686a12.189726,11.285189 0 0 1 -5.654224,-3.191333c-1.840547,-1.927796 -2.721826,-4.483751 -3.228757,-7.010825c-2.565848,-12.953058 4.468786,-27.06135 16.783295,-33.653402a12.30671,11.393492 0 0 1 5.334467,-1.754511a12.642064,11.703962 0 0 1 5.396859,1.097472l0.085788,0.043321z"/>
   <path stroke="null" id="svg_24" fill="#fbbebe" d="m629.86354,510.80987c5.732213,-0.144404 12.166329,-0.411552 16.377751,3.162452c4.016448,3.379059 4.546776,8.953061 4.811939,13.971108l0.304158,5.82671c0.093587,1.776172 0.171576,3.610105 -0.600518,5.256313c-1.372612,2.888084 -5.139494,4.281585 -8.578822,4.11552s-6.597894,-1.559566 -9.740862,-2.815882a137.027183,126.859102 0 0 0 -26.516359,-7.732846q0.444539,-6.043316 1.481797,-12.028871c0.475735,-2.765341 0.553724,-7.393496 2.55025,-9.689523c2.11351,-2.425991 4.866532,-1.111912 7.736538,-0.664259a62.102872,57.494538 0 0 0 12.174128,0.599277z"/>
   <path stroke="null" id="svg_25" fill="#464353" d="m478.392741,452.268401c0,0.722021 -1.224432,0 -1.333617,-0.772563c-0.857882,-5.84115 -5.864795,-10.657031 -11.698394,-12.996379s-12.478286,-2.462092 -18.795419,-1.906136c-9.553688,0.837544 -20.238221,4.223823 -23.771136,12.490964c-0.826686,1.935016 -1.201035,4.028878 -2.214896,5.884472c-1.123046,2.036099 -2.955794,3.660647 -4.172427,5.638985c-2.097912,3.42238 -2.1837,7.617322 -1.427204,11.487355c2.03552,10.324901 9.662873,19.155219 18.904604,25.270737s20.043248,9.768945 30.813569,13.061361a534.374817,494.721616 0 0 0 87.348005,19.314064c4.80414,0.67148 9.655074,1.292418 14.256442,2.722019c4.117835,1.277977 7.970505,3.191333 11.994753,4.693137c9.358715,3.480142 19.427132,4.722018 29.401962,5.942233c1.700167,0.202166 3.649899,0.34657 4.905526,-0.722021c1.622177,-1.393501 1.084051,-3.819491 0.623914,-5.81949a33.808357,31.299613 0 0 1 3.969655,-22.194928c1.668971,-2.599276 3.837073,-5.263534 3.525116,-8.274361c-0.374349,-3.509022 -4.14903,-5.992775 -7.908114,-6.555951s-7.580559,0.267148 -11.355241,0.722021c-1.302421,0.158845 -2.721826,0.259928 -3.899465,-0.35379a7.713141,7.140788 0 0 1 -1.512992,-1.241876a17.103051,15.833922 0 0 0 -19.918465,-2.577615c-1.396008,0.722021 -3.509518,-0.888086 -4.960119,-1.494584l-16.38555,-6.880861c-18.842213,-7.89169 -37.778012,-15.819482 -57.712075,-20.815867a12.119536,11.220207 0 0 1 -4.44539,-1.71119c-0.990464,-0.722021 -1.700167,-1.70397 -2.612641,-2.505413c-1.988727,-1.740071 -4.757347,-2.433211 -7.143819,-3.667867s-5.038108,-4.259924 -4.476585,-6.736457z"/>
   <path stroke="null" id="svg_26" fill="#3f3d56" d="m731.226221,546.629335c-2.62044,4.498191 -7.705342,7.299633 -13.164592,8.454867a26.126412,24.187706 0 0 1 -4.164628,0.548736c-6.902052,0.397112 -13.718316,-1.37184 -20.370803,-3.119131l-9.03116,-2.368229a28.505086,26.38987 0 0 0 -4.757347,-0.981949a32.646317,30.223802 0 0 0 -6.582296,0.209386a116.664179,108.007132 0 0 1 -31.975609,-1.328519a5.638626,5.220212 0 0 1 -2.47226,-0.815884a12.283313,11.371832 0 0 1 -1.723563,-1.956677c-2.456663,-2.73646 -5.1005,-4.332126 -2.191499,-7.942232c1.67677,-2.093861 4.788542,-3.140792 6.090964,-5.545122s0.467936,-5.81949 -0.304158,-8.303242c-1.052855,-3.4296 -4.51558,-4.909743 -5.75561,-8.057755c-0.928073,-2.375449 0.631713,-5.13357 2.979191,-6.425988s5.248679,-1.393501 7.954908,-1.061371s5.357864,1.03971 8.07969,1.234656c8.001701,0.592057 16.182778,-3.227434 23.864723,-1.075811c1.692368,0.476534 3.291148,1.234656 5.006912,1.653428a16.650713,15.41515 0 0 0 10.006026,-0.801443c1.123046,-0.389891 2.222695,-0.859205 3.314545,-1.321299a26.695734,24.714781 0 0 1 6.668084,-2.231045c7.494771,-1.191335 14.443617,3.610105 20.09784,8.296022a28.419297,26.310448 0 0 1 5.108299,5.12635c1.559786,2.252706 2.386472,4.873642 3.119572,7.458478c2.066716,6.693135 3.774682,14.216595 0.202772,20.353774z"/>
   <path stroke="null" id="svg_27" opacity="0.1" d="m731.226221,546.629335c-2.62044,4.498191 -7.705342,7.299633 -13.164592,8.454867a25.494699,23.602869 0 0 0 2.76862,-12.389882c-0.467936,-6.86642 -3.727888,-13.335729 -7.884717,-19.039696a72.841997,67.436768 0 0 0 -8.688007,-9.797826c-2.480059,-2.310467 -5.529441,-4.144401 -8.196674,-6.259923a26.695734,24.714781 0 0 1 6.668084,-2.231045c7.494771,-1.191335 14.443617,3.610105 20.09784,8.296022a28.419297,26.310448 0 0 1 5.108299,5.12635c1.559786,2.252706 2.386472,4.873642 3.119572,7.458478c2.03552,6.722016 3.743486,14.245476 0.171576,20.382655z"/>
   <path stroke="null" id="svg_28" fill="#3f3d56" d="m495.675168,196.261391c-2.62044,1.754511 -4.414194,4.274365 -6.239143,6.693135c-3.361338,4.46931 -7.167216,8.931401 -12.540678,11.422373c-2.03552,0.945848 -4.359601,1.660648 -5.708816,3.306856a9.623878,8.90974 0 0 0 -1.520791,3.703968a79.276113,73.393442 0 0 0 -1.606579,14.151613c0,2.368229 0.109185,4.80866 1.24003,6.960283c1.068453,2.021659 2.994789,3.732849 3.392534,5.935013c0.304158,1.71841 -0.382148,3.4296 -0.623914,5.15523s0.179375,3.76895 1.902939,4.592054a11.534616,10.678692 0 0 0 2.885604,0.628158c5.186288,1.068591 6.925449,6.700356 7.713141,11.357391c1.762558,-0.093863 2.558049,-1.963897 2.924598,-3.487362l5.404658,-22.245469c0.58492,-2.41155 1.559786,-5.205772 4.156829,-6.050537c1.739161,-0.555956 3.6421,-0.036101 5.45925,0.108303c7.13602,0.541516 13.172391,-4.563173 20.152433,-5.971114a25.736466,23.826695 0 0 1 6.792867,-0.411552c5.506044,0.252707 11.908965,2.346568 13.078804,7.104687c0.194973,0.772563 0.311957,1.69675 1.09185,2.079421s1.559786,0.057762 2.417668,0c3.49392,-0.324909 5.552837,3.314077 6.558899,6.288804l3.665497,10.830316c0.545925,1.638988 1.466199,3.566784 3.384735,3.77617c1.770357,0.202166 3.27555,-1.350179 3.540714,-2.888084s-0.311957,-3.133571 -0.694105,-4.678697c-1.723563,-7.111908 0.912475,-14.38988 2.519054,-21.516228s1.89514,-15.314067 -3.49392,-20.801427c-1.957531,-1.985558 -4.531178,-3.465701 -6.356127,-5.559562c-1.700167,-1.963897 -2.659435,-4.375448 -4.421993,-6.303244c-4.874331,-5.321295 -17.376014,-9.429595 -25.042361,-10.108295c-8.727002,-0.888086 -22.952248,1.169674 -30.033676,5.927793z"/>
   <g stroke="null" transform="matrix(0.7798929015334259,0,0,0.722021068478699,-7664.495730183431,-5294.88104243759) " id="svg_29" opacity="0.1">
    <path stroke="null" id="svg_30" d="m10545.274263,7689.538288c-2.46,-0.3 -3.64,-3 -4.34,-5.23q-2.35,-7.51 -4.7,-15c-1.29,-4.13 -3.93,-9.17 -8.41,-8.71c-1,0.11 -2.18,0.52 -3.1,0s-1.15,-1.81 -1.4,-2.88c-1.5,-6.6 -9.71,-9.49 -16.77,-9.84a33.43,33.43 0 0 0 -8.71,0.57c-9,2 -16.69,9 -25.84,8.27c-2.36,-0.19 -4.8,-0.91 -7,-0.14c-3.37,1.16 -4.58,5 -5.33,8.38l-6.93,30.8c-0.47,2.12 -1.49,4.71 -3.75,4.83c-1,-6.44 -3.24,-14.24 -9.89,-15.72a15.72,15.72 0 0 1 -3.7,-0.87a4.34,4.34 0 0 1 -1.93,-2.15c-0.18,0.93 -0.39,1.86 -0.51,2.79c-0.3,2.38 0.23,5.22 2.44,6.36a14.79,14.79 0 0 0 3.7,0.87c6.65,1.48 8.88,9.28 9.89,15.73c2.26,-0.13 3.28,-2.72 3.75,-4.83l6.93,-30.81c0.75,-3.34 2,-7.21 5.33,-8.38c2.23,-0.77 4.67,-0.05 7,0.15c9.15,0.75 16.89,-6.32 25.84,-8.27a33,33 0 0 1 8.67,-0.57c7.06,0.35 15.27,3.25 16.77,9.84c0.25,1.07 0.4,2.35 1.4,2.88s2,0.08 3.1,0c4.48,-0.45 7.12,4.59 8.41,8.71q2.34,7.51 4.7,15c0.7,2.27 1.88,4.94 4.34,5.23c2.27,0.28 4.2,-1.87 4.54,-4a13.58,13.58 0 0 0 -0.6,-5.31a4.13,4.13 0 0 1 -3.9,2.3z"/>
    <path stroke="null" id="svg_31" d="m10433.734263,7670.498288c-0.51,-3.05 -3,-5.42 -4.35,-8.22a16.45,16.45 0 0 1 -1.48,-6c0,1.12 -0.1,2.24 -0.11,3.37c0,3.28 0.14,6.66 1.59,9.64c1.11,2.27 2.94,4.27 3.86,6.58a15.06,15.06 0 0 0 0.49,-5.37z"/>
    <path stroke="null" id="svg_32" d="m10552.154263,7649.218288c-1.82,8.72 -4.66,17.6 -3.78,26.34c0.57,-6.45 2.45,-12.94 3.78,-19.34a51,51 0 0 0 1.16,-14.82a61.14,61.14 0 0 1 -1.16,7.82z"/>
   </g>
   <path stroke="null" id="svg_33" fill="#fbbebe" d="m475.772301,389.871341c-0.94367,14.339338 -12.30671,26.187704 -16.635116,39.978307c-1.076252,3.451261 -1.723563,7.032485 -3.267751,10.317681c-3.119572,6.606493 -9.53809,11.400713 -16.377751,14.779771a24.597822,22.772544 0 0 1 -8.064093,2.714799a15.457477,14.310458 0 0 1 -15.527668,-7.646203c-1.785955,-3.357398 -2.03552,-7.220211 -3.119572,-10.830316c-1.208834,-4.166062 -3.470523,-8.007214 -4.944521,-12.101073c-2.714027,-7.53068 -2.659435,-15.77616 -0.779893,-23.516226a77.98929,72.202107 0 0 1 8.368251,-19.17688c0.545925,-0.888086 1.099649,-1.768952 1.668971,-2.642597a64.871492,60.057712 0 0 1 5.404658,-7.220211c4.679357,-5.220212 10.692332,-9.234649 16.642915,-13.191325a3.899465,3.610105 0 0 1 1.559786,-0.722021l0.093587,0a3.766883,3.487362 0 0 1 1.926335,0.418772a152.515856,141.19844 0 0 1 23.66975,11.870026c2.682832,1.653428 6.91765,3.501802 8.321457,6.317684s1.263427,7.588441 1.060654,10.649811z"/>
   <path stroke="null" id="svg_34" fill="#f86d70" d="m444.810553,323.885835a8.071892,7.472918 0 0 0 -1.731362,2.563175a130.912822,121.198457 0 0 0 -10.99649,41.602854a4.492183,4.158841 0 0 1 -0.50693,2.014439a9.522492,8.815877 0 0 1 -1.146443,1.148013a4.305009,3.985556 0 0 0 0.733099,5.776169c1.286823,-2.245486 4.3674,-2.974727 7.104824,-3.169672c13.11,-0.960288 25.915841,4.685917 39.064835,4.259924c-0.928073,-2.967507 -2.261689,-5.81949 -3.018186,-8.823097c-3.345741,-13.335729 4.999113,-27.855573 -0.116984,-40.700328c-1.02166,-2.570395 -2.729625,-5.097469 -5.420256,-6.223822a14.435818,13.36461 0 0 0 -3.470523,-0.851985c-3.322344,-0.555956 -9.935836,-2.931406 -13.148994,-1.978338c-1.185437,0.35379 -1.653373,1.38628 -2.636038,2.007219c-1.4584,0.888086 -3.439328,1.198555 -4.710553,2.375449z"/>
   <path stroke="null" id="svg_35" opacity="0.1" d="m450.184015,443.272019a22.999042,21.292401 0 0 1 -19.497323,10.476526a15.36389,14.223815 0 0 1 -6.239143,-1.061371c-4.983516,-2.036099 -7.798929,-7.075806 -8.843986,-12.028871s-0.717501,-10.064974 -1.4584,-15.06858c-0.592719,-3.985556 -1.856145,-7.855589 -2.511255,-11.833925c-1.606579,-9.841147 1.559786,-19.559551 3.813676,-29.357377c0.545925,-0.888086 1.099649,-1.768952 1.668971,-2.642597a64.871492,60.057712 0 0 1 5.404658,-7.220211c4.679357,-5.220212 10.692332,-9.234649 16.642915,-13.191325l-6.239143,0a1.068453,0.989169 0 0 1 1.692368,0.68592c0.616115,5.054147 8.313658,10.108295 9.990428,15.018038c1.037258,3.018048 2.285086,5.978334 3.119572,9.054144a78.35584,72.541457 0 0 1 1.497394,7.942232q1.661172,11.212987 3.306746,22.382653c1.38041,9.090245 2.565848,18.916952 -2.347478,26.844743z"/>
   <path stroke="null" id="svg_36" fill="#fbbebe" d="m439.858233,348.470653l7.525966,-21.855578c1.123046,-3.270755 2.261689,-6.592052 2.394271,-10.028873s-0.842284,-7.039705 -3.439328,-9.494577c-2.105711,-1.985558 -5.02251,-3.010828 -7.518168,-4.563173c-6.239143,-3.891694 -9.358715,-10.707572 -12.610868,-16.981936s-7.533765,-12.837535 -14.630791,-15.162442c-1.637775,-0.534296 -3.899465,-0.577617 -4.632564,0.873645a3.314545,3.06859 0 0 0 -0.116984,1.891695c0.686306,3.335737 3.267751,5.999995 5.513843,8.664253c3.766883,4.512632 6.91765,10.036093 6.012974,15.682298c-1.076252,6.685915 -7.564961,11.870026 -8.344854,18.592043c-0.343153,2.960286 0.475735,5.927793 0.467936,8.90974c0,1.848374 -0.327555,3.732849 0.116984,5.537902a40.289267,37.299608 0 0 0 1.645574,4.10108a25.876846,23.956659 0 0 1 1.076252,6.649814l1.645574,28.418749c0.889078,15.371829 -8.118685,30.324885 -5.638626,45.487327c0.65511,3.978336 1.918537,7.848369 2.511255,11.833925c0.779893,5.003606 0.413343,10.108295 1.4584,15.06858s3.899465,9.992772 8.843986,12.028871a15.36389,14.223815 0 0 0 6.239143,1.061371a22.999042,21.292401 0 0 0 19.497323,-10.476526c4.913325,-7.942232 3.727888,-17.754498 2.386472,-26.808642l-3.306746,-22.382653a78.35584,72.541457 0 0 0 -1.497394,-7.942232c-0.826686,-3.07581 -2.074515,-6.036096 -3.119572,-9.054144c-3.345741,-9.870028 -5.849197,-20.245471 -2.480059,-30.050517z"/>
   <rect stroke="null" transform="matrix(0.7798929015334259,0,0,0.722021068478699,-7664.495730183431,-5294.88104243759) " id="svg_37" fill="#3f3d56" rx="7.97" height="142" width="223" y="7818.398507" x="10433.474217"/>
   <rect stroke="null" transform="matrix(0.7798929015334259,0,0,0.722021068478699,-7664.495730183431,-5294.88104243759) " id="svg_38" opacity="0.2" rx="7.97" height="142" width="223" y="7818.398507" x="10433.474217"/>
   <circle stroke="null" transform="matrix(0.7798929015334259,0,0,0.722021068478699,-7664.495730183431,-5294.88104243759) " id="svg_39" fill="#fff" r="6" cy="7889.398507" cx="10544.474217"/>
   <path stroke="null" id="svg_40" fill="#3f3d56" d="m353.851643,485.430828l9.444503,0a19.497323,18.050527 0 0 1 19.497323,18.050527l0,26.794202a0,0 0 0 1 0,0l-48.439148,0a0,0 0 0 1 0,0l0,-26.794202a19.497323,18.050527 0 0 1 19.497323,-18.050527z"/>
   <path stroke="null" id="svg_41" opacity="0.1" d="m353.851643,485.430828l9.444503,0a19.497323,18.050527 0 0 1 19.497323,18.050527l0,26.794202a0,0 0 0 1 0,0l-48.439148,0a0,0 0 0 1 0,0l0,-26.794202a19.497323,18.050527 0 0 1 19.497323,-18.050527z"/>
   <circle stroke="null" transform="matrix(0.7798929015334259,0,0,0.722021068478699,-7664.495730183431,-5294.88104243759) " id="svg_42" fill="#3f3d56" r="4.97" cy="8014.438507" cx="10284.924217"/>
   <circle stroke="null" transform="matrix(0.7798929015334259,0,0,0.722021068478699,-7664.495730183431,-5294.88104243759) " id="svg_43" fill="#3f3d56" r="4.97" cy="8008.228507" cx="10284.924217"/>
   <circle stroke="null" transform="matrix(0.7798929015334259,0,0,0.722021068478699,-7664.495730183431,-5294.88104243759) " id="svg_44" fill="#3f3d56" r="4.97" cy="8002.018507" cx="10284.924217"/>
   <circle stroke="null" transform="matrix(0.7798929015334259,0,0,0.722021068478699,-7664.495730183431,-5294.88104243759) " id="svg_45" fill="#3f3d56" r="4.97" cy="7995.808507" cx="10284.924217"/>
   <circle stroke="null" transform="matrix(0.7798929015334259,0,0,0.722021068478699,-7664.495730183431,-5294.88104243759) " id="svg_46" fill="#3f3d56" r="4.97" cy="7989.598507" cx="10284.924217"/>
   <circle stroke="null" transform="matrix(0.7798929015334259,0,0,0.722021068478699,-7664.495730183431,-5294.88104243759) " id="svg_47" fill="#3f3d56" r="4.97" cy="7983.388507" cx="10284.924217"/>
   <circle stroke="null" transform="matrix(0.7798929015334259,0,0,0.722021068478699,-7664.495730183431,-5294.88104243759) " id="svg_48" fill="#3f3d56" r="4.97" cy="7977.178507" cx="10284.924217"/>
   <circle stroke="null" transform="matrix(0.7798929015334259,0,0,0.722021068478699,-7664.495730183431,-5294.88104243759) " id="svg_49" fill="#3f3d56" r="4.97" cy="7979.658507" cx="10292.374217"/>
   <circle stroke="null" transform="matrix(0.7798929015334259,0,0,0.722021068478699,-7664.495730183431,-5294.88104243759) " id="svg_50" fill="#3f3d56" r="4.97" cy="7977.178507" cx="10297.344217"/>
   <circle stroke="null" transform="matrix(0.7798929015334259,0,0,0.722021068478699,-7664.495730183431,-5294.88104243759) " id="svg_51" fill="#3f3d56" r="4.97" cy="7974.688507" cx="10302.314217"/>
   <circle stroke="null" transform="matrix(0.7798929015334259,0,0,0.722021068478699,-7664.495730183431,-5294.88104243759) " id="svg_52" fill="#3f3d56" r="4.97" cy="7970.958507" cx="10284.924217"/>
   <circle stroke="null" transform="matrix(0.7798929015334259,0,0,0.722021068478699,-7664.495730183431,-5294.88104243759) " id="svg_53" fill="#3f3d56" r="4.97" cy="7964.748507" cx="10284.924217"/>
   <circle stroke="null" transform="matrix(0.7798929015334259,0,0,0.722021068478699,-7664.495730183431,-5294.88104243759) " id="svg_54" fill="#3f3d56" r="4.97" cy="7958.538507" cx="10284.924217"/>
   <circle stroke="null" transform="matrix(0.7798929015334259,0,0,0.722021068478699,-7664.495730183431,-5294.88104243759) " id="svg_55" fill="#3f3d56" r="4.97" cy="7952.328507" cx="10284.924217"/>
   <path stroke="null" id="svg_56" fill="#e1691d" d="m372.701655,435.293686c-0.959268,0.129964 -1.926335,0.223827 -2.893403,0.281588a22.273741,20.620922 0 0 0 2.495657,-2.368229a16.549327,15.321287 0 0 0 -2.339679,-4.209383a7.970505,7.379055 0 0 1 -3.119572,0.909747c-0.959268,0.129964 -1.926335,0.231047 -2.893403,0.288808a53.352473,49.393461 0 0 0 3.704491,-3.610105a16.45574,15.234645 0 1 0 5.451451,11.29963a16.128185,14.931396 0 0 0 -0.249566,-2.620936l-0.155979,0.028881z"/>
   <path stroke="null" id="svg_57" fill="#e1691d" d="m385.655676,453.120386a7.666347,7.097467 0 0 1 -3.259952,1.010829c-0.959268,0.129964 -1.926335,0.223827 -2.893403,0.281588a28.388102,26.281567 0 0 0 2.870006,-2.75812a9.701868,8.981942 0 1 0 3.283349,1.444042l0,0.021661z"/>
   <circle stroke="null" transform="matrix(0.7798929015334259,0,0,0.722021068478699,-7664.495730183431,-5294.88104243759) " id="svg_58" fill="#3f3d56" r="4.97" cy="7979.658507" cx="10277.464217"/>
   <circle stroke="null" transform="matrix(0.7798929015334259,0,0,0.722021068478699,-7664.495730183431,-5294.88104243759) " id="svg_59" fill="#3f3d56" r="4.97" cy="7977.178507" cx="10272.494217"/>
   <circle stroke="null" transform="matrix(0.7798929015334259,0,0,0.722021068478699,-7664.495730183431,-5294.88104243759) " id="svg_60" fill="#3f3d56" r="4.97" cy="7974.688507" cx="10267.524217"/>
   <path stroke="null" id="svg_61" fill="#e1691d" d="m327.623845,453.120386a7.627353,7.061366 0 0 0 3.259952,1.010829c0.959268,0.129964 1.926335,0.223827 2.893403,0.281588a27.623807,25.573986 0 0 1 -2.870006,-2.75812a9.701868,8.981942 0 1 1 -3.283349,1.444042l0,0.021661z"/>
   <path stroke="null" id="svg_62" fill="#3f3d56" d="m353.851643,488.123967l9.444503,0a19.497323,18.050527 0 0 1 19.497323,18.050527l0,23.732833a3.306746,3.061369 0 0 1 -3.306746,3.061369l-41.825656,0a3.306746,3.061369 0 0 1 -3.306746,-3.061369l0,-23.732833a19.497323,18.050527 0 0 1 19.497323,-18.050527z"/>
   <g stroke="null" transform="matrix(0.7798929015334259,0,0,0.722021068478699,-7664.495730183431,-5294.88104243759) " id="svg_63" opacity="0.1">
    <path stroke="null" id="svg_64" d="m10305.894263,7937.658288a18.83,18.83 0 0 1 -1.6,1.52c0.57,0 1.13,-0.09 1.7,-0.15c-0.02,-0.46 -0.05,-0.92 -0.1,-1.37z"/>
    <path stroke="null" id="svg_65" d="m10296.834263,7931.718288c1.25,-0.08 2.48,-0.21 3.72,-0.39a12,12 0 0 0 3.23,-0.88a21.92,21.92 0 0 0 -1.74,-2.87a7.52,7.52 0 0 1 -2,0.85a28.79,28.79 0 0 1 -3.21,3.29z"/>
    <path stroke="null" id="svg_66" d="m10266.284263,7942.388288a21.08,21.08 0 0 1 32.5,-17.76l0.32,-0.34a21.1,21.1 0 1 0 -27.82,31.73a21,21 0 0 1 -5,-13.63z"/>
   </g>
   <g stroke="null" transform="matrix(0.7798929015334259,0,0,0.722021068478699,-7664.495730183431,-5294.88104243759) " id="svg_67" opacity="0.1">
    <path stroke="null" id="svg_68" d="m10314.234263,7965.258288c1.24,-0.08 2.48,-0.21 3.71,-0.39a9.7,9.7 0 0 0 4.18,-1.4a12.43,12.43 0 0 1 5,8.8a11.38,11.38 0 0 0 0.07,-1.31a12.38,12.38 0 0 0 -5,-10a9.83,9.83 0 0 1 -4.18,1.4l-1,0.12a25.37,25.37 0 0 1 -2.78,2.78z"/>
    <path stroke="null" id="svg_69" d="m10314.734263,7961.018288a10.19,10.19 0 0 1 1.24,0.09c0.65,-0.69 1.29,-1.43 1.94,-2.15a12.4,12.4 0 0 0 -15.6,12c0,0.42 0,0.83 0.06,1.24a12.42,12.42 0 0 1 12.36,-11.18z"/>
   </g>
   <g stroke="null" transform="matrix(0.7798929015334259,0,0,0.722021068478699,-7664.495730183431,-5294.88104243759) " id="svg_70" opacity="0.1">
    <path stroke="null" id="svg_71" d="m10255.604263,7965.258288c-1.24,-0.08 -2.48,-0.21 -3.71,-0.39a9.65,9.65 0 0 1 -4.18,-1.4a12.43,12.43 0 0 0 -5,8.8a11.38,11.38 0 0 1 -0.07,-1.31a12.38,12.38 0 0 1 5,-10a9.78,9.78 0 0 0 4.18,1.4l1,0.12a23.67,23.67 0 0 0 2.78,2.78z"/>
    <path stroke="null" id="svg_72" d="m10255.104263,7961.018288a10.36,10.36 0 0 0 -1.25,0.09c-0.64,-0.69 -1.28,-1.43 -1.93,-2.15a12.4,12.4 0 0 1 15.6,12c0,0.42 0,0.83 -0.06,1.24a12.42,12.42 0 0 0 -12.36,-11.18z"/>
   </g>
   <rect stroke="null" transform="matrix(0.7798929015334259,0,0,0.722021068478699,-7664.495730183431,-5294.88104243759) " id="svg_73" fill="#e1691d" height="88" width="226" y="7574.388507" x="9990.014217"/>
   <rect stroke="#3f3d56" transform="matrix(0.7798929015334259,0,0,0.722021068478699,-7664.495730183431,-5294.88104243759) " id="svg_74" stroke-width="9" stroke-miterlimit="10" fill="none" rx="12" height="88" width="371" y="7574.388507" x="9990.014217"/>
   <path stroke="null" id="svg_75" fill="#fff" d="m285.166476,202.355249a14.116062,13.068581 0 0 0 -26.383777,-3.458481a11.292849,10.454865 0 0 0 1.224432,20.851968l24.504235,0a9.444503,8.743675 0 0 0 9.421106,-8.758116a9.304122,8.613711 0 0 0 -8.765996,-8.635372zm-10.832712,5.14801l0,6.628153l-6.036371,0l0,-6.628153l-6.402921,0l9.421106,-8.729235l9.421106,8.729235l-6.402921,0z"/>
  </g>
 </g>
</svg>